Interstate-Condensed_Bold.ufo
<glyph name="exclam" format="1">
  <advance width="265"/>
  <unicode hex="0021"/>
  <outline>
    <contour>
      <point x="195" y="364" type="line"/>
      <point x="176" y="210" type="line"/>
      <point x="89" y="210" type="line"/>
      <point x="70" y="364" type="line"/>
      <point x="70" y="700" type="line"/>
      <point x="195" y="700" type="line"/>
    </contour>
    <contour>
      <point x="213" y="70" type="curve" smooth="yes"/>
      <point x="213" y="26"/>
      <point x="176" y="-11"/>
      <point x="132" y="-11" type="curve" smooth="yes"/>
      <point x="88" y="-11"/>
      <point x="51" y="26"/>
      <point x="51" y="70" type="curve" smooth="yes"/>
      <point x="51" y="114"/>
      <point x="88" y="151"/>
      <point x="132" y="151" type="curve" smooth="yes"/>
      <point x="176" y="151"/>
      <point x="213" y="114"/>
    </contour>
  </outline>
</glyph>
<glyph name="quotedbl" format="1">
  <advance width="471"/>
  <unicode hex="0022"/>
  <outline>
    <contour>
      <point x="418" y="700" type="line"/>
      <point x="386" y="373" type="line"/>
      <point x="306" y="373" type="line"/>
      <point x="274" y="700" type="line"/>
    </contour>
    <contour>
      <point x="197" y="700" type="line"/>
      <point x="165" y="373" type="line"/>
      <point x="85" y="373" type="line"/>
      <point x="53" y="700" type="line"/>
    </contour>
  </outline>
</glyph>
<glyph name="numbersign" format="1">
  <advance width="660"/>
  <unicode hex="0023"/>
  <outline>
    <contour>
      <point x="615" y="140" type="line"/>
      <point x="515" y="140" type="line"/>
      <point x="515" y="0" type="line"/>
      <point x="397" y="0" type="line"/>
      <point x="397" y="140" type="line"/>
      <point x="263" y="140" type="line"/>
      <point x="263" y="0" type="line"/>
      <point x="145" y="0" type="line"/>
      <point x="145" y="140" type="line"/>
      <point x="45" y="140" type="line"/>
      <point x="45" y="248" type="line"/>
      <point x="145" y="248" type="line"/>
      <point x="145" y="452" type="line"/>
      <point x="45" y="452" type="line"/>
      <point x="45" y="560" type="line"/>
      <point x="145" y="560" type="line"/>
      <point x="145" y="700" type="line"/>
      <point x="263" y="700" type="line"/>
      <point x="263" y="560" type="line"/>
      <point x="397" y="560" type="line"/>
      <point x="397" y="700" type="line"/>
      <point x="515" y="700" type="line"/>
      <point x="515" y="560" type="line"/>
      <point x="615" y="560" type="line"/>
      <point x="615" y="452" type="line"/>
      <point x="515" y="452" type="line"/>
      <point x="515" y="248" type="line"/>
      <point x="615" y="248" type="line"/>
    </contour>
    <contour>
      <point x="397" y="248" type="line"/>
      <point x="397" y="452" type="line"/>
      <point x="263" y="452" type="line"/>
      <point x="263" y="248" type="line"/>
    </contour>
  </outline>
</glyph>
<glyph name="dollar" format="1">
  <advance width="471"/>
  <unicode hex="0024"/>
  <outline>
    <contour>
      <point x="443" y="194" type="curve" smooth="yes"/>
      <point x="443" y="100"/>
      <point x="391" y="31"/>
      <point x="302" y="7" type="curve"/>
      <point x="302" y="-80" type="line"/>
      <point x="176" y="-80" type="line"/>
      <point x="176" y="5" type="line"/>
      <point x="111" y="21"/>
      <point x="62" y="62"/>
      <point x="24" y="109" type="curve"/>
      <point x="109" y="195" type="line"/>
      <point x="151" y="141"/>
      <point x="196" y="115"/>
      <point x="238" y="115" type="curve" smooth="yes"/>
      <point x="290" y="115"/>
      <point x="316" y="144"/>
      <point x="316" y="191" type="curve" smooth="yes"/>
      <point x="316" y="231"/>
      <point x="291" y="258"/>
      <point x="209" y="300" type="curve" smooth="yes"/>
      <point x="105" y="354"/>
      <point x="42" y="402"/>
      <point x="42" y="518" type="curve" smooth="yes"/>
      <point x="42" y="603"/>
      <point x="93" y="671"/>
      <point x="176" y="693" type="curve"/>
      <point x="176" y="780" type="line"/>
      <point x="302" y="780" type="line"/>
      <point x="302" y="693" type="line"/>
      <point x="354" y="680"/>
      <point x="393" y="648"/>
      <point x="429" y="601" type="curve"/>
      <point x="346" y="523" type="line"/>
      <point x="305" y="569"/>
      <point x="283" y="585"/>
      <point x="235" y="585" type="curve" smooth="yes"/>
      <point x="195" y="585"/>
      <point x="169" y="559"/>
      <point x="169" y="524" type="curve" smooth="yes"/>
      <point x="169" y="482"/>
      <point x="193" y="461"/>
      <point x="269" y="420" type="curve" smooth="yes"/>
      <point x="390" y="355"/>
      <point x="443" y="312"/>
    </contour>
  </outline>
</glyph>
<glyph name="percent" format="1">
  <advance width="861"/>
  <unicode hex="0025"/>
  <outline>
    <contour>
      <point x="346" y="494" type="curve" smooth="yes"/>
      <point x="346" y="361"/>
      <point x="289" y="276"/>
      <point x="185" y="276" type="curve" smooth="yes"/>
      <point x="82" y="276"/>
      <point x="27" y="359"/>
      <point x="27" y="492" type="curve" smooth="yes"/>
      <point x="27" y="627"/>
      <point x="82" y="711"/>
      <point x="187" y="711" type="curve" smooth="yes"/>
      <point x="294" y="711"/>
      <point x="346" y="627"/>
    </contour>
    <contour>
      <point x="660" y="700" type="line"/>
      <point x="301" y="0" type="line"/>
      <point x="200" y="0" type="line"/>
      <point x="559" y="700" type="line"/>
    </contour>
    <contour>
      <point x="834" y="207" type="curve" smooth="yes"/>
      <point x="834" y="74"/>
      <point x="777" y="-11"/>
      <point x="673" y="-11" type="curve" smooth="yes"/>
      <point x="570" y="-11"/>
      <point x="515" y="72"/>
      <point x="515" y="205" type="curve" smooth="yes"/>
      <point x="515" y="340"/>
      <point x="570" y="424"/>
      <point x="675" y="424" type="curve" smooth="yes"/>
      <point x="782" y="424"/>
      <point x="834" y="340"/>
    </contour>
    <contour>
      <point x="244" y="492" type="curve" smooth="yes"/>
      <point x="244" y="575"/>
      <point x="231" y="621"/>
      <point x="186" y="621" type="curve" smooth="yes"/>
      <point x="141" y="621"/>
      <point x="129" y="577"/>
      <point x="129" y="494" type="curve" smooth="yes"/>
      <point x="129" y="411"/>
      <point x="142" y="365"/>
      <point x="187" y="365" type="curve" smooth="yes"/>
      <point x="232" y="365"/>
      <point x="244" y="416"/>
    </contour>
    <contour>
      <point x="732" y="205" type="curve" smooth="yes"/>
      <point x="732" y="288"/>
      <point x="719" y="334"/>
      <point x="674" y="334" type="curve" smooth="yes"/>
      <point x="629" y="334"/>
      <point x="617" y="290"/>
      <point x="617" y="207" type="curve" smooth="yes"/>
      <point x="617" y="124"/>
      <point x="630" y="78"/>
      <point x="675" y="78" type="curve" smooth="yes"/>
      <point x="720" y="78"/>
      <point x="732" y="129"/>
    </contour>
  </outline>
</glyph>
<glyph name="ampersand" format="1">
  <advance width="542"/>
  <unicode hex="0026"/>
  <outline>
    <contour>
      <point x="533" y="0" type="line"/>
      <point x="399" y="0" type="line"/>
      <point x="365" y="50" type="line"/>
      <point x="325" y="11"/>
      <point x="276" y="-11"/>
      <point x="222" y="-11" type="curve" smooth="yes"/>
      <point x="95" y="-11"/>
      <point x="32" y="60"/>
      <point x="32" y="177" type="curve" smooth="yes"/>
      <point x="32" y="257"/>
      <point x="68" y="318"/>
      <point x="145" y="373" type="curve"/>
      <point x="121" y="409" type="line" smooth="yes"/>
      <point x="91" y="453"/>
      <point x="71" y="492"/>
      <point x="71" y="544" type="curve" smooth="yes"/>
      <point x="71" y="652"/>
      <point x="146" y="711"/>
      <point x="252" y="711" type="curve" smooth="yes"/>
      <point x="324" y="711"/>
      <point x="375" y="692"/>
      <point x="429" y="652" type="curve"/>
      <point x="371" y="550" type="line"/>
      <point x="333" y="579"/>
      <point x="296" y="594"/>
      <point x="251" y="594" type="curve" smooth="yes"/>
      <point x="218" y="594"/>
      <point x="196" y="571"/>
      <point x="196" y="543" type="curve" smooth="yes"/>
      <point x="196" y="511"/>
      <point x="206" y="494"/>
      <point x="229" y="460" type="curve" smooth="yes"/>
      <point x="364" y="255" type="line"/>
      <point x="374" y="285"/>
      <point x="383" y="318"/>
      <point x="390" y="354" type="curve"/>
      <point x="484" y="312" type="line"/>
      <point x="473" y="251"/>
      <point x="456" y="196"/>
      <point x="434" y="150" type="curve"/>
    </contour>
    <contour>
      <point x="304" y="140" type="curve"/>
      <point x="205" y="285" type="line"/>
      <point x="163" y="251"/>
      <point x="150" y="217"/>
      <point x="150" y="181" type="curve" smooth="yes"/>
      <point x="150" y="134"/>
      <point x="177" y="104"/>
      <point x="225" y="104" type="curve" smooth="yes"/>
      <point x="256" y="104"/>
      <point x="282" y="117"/>
    </contour>
  </outline>
</glyph>
<glyph name="quotesingle" format="1">
  <advance width="255"/>
  <unicode hex="0027"/>
  <outline>
    <contour>
      <point x="202" y="700" type="line"/>
      <point x="170" y="373" type="line"/>
      <point x="85" y="373" type="line"/>
      <point x="53" y="700" type="line"/>
    </contour>
  </outline>
</glyph>
<glyph name="parenleft" format="1">
  <advance width="325"/>
  <unicode hex="0028"/>
  <outline>
    <contour>
      <point x="293" y="-57" type="curve"/>
      <point x="223" y="-110" type="line"/>
      <point x="126" y="-17"/>
      <point x="45" y="124"/>
      <point x="45" y="300" type="curve" smooth="yes"/>
      <point x="45" y="481"/>
      <point x="121" y="616"/>
      <point x="223" y="716" type="curve"/>
      <point x="293" y="663" type="line"/>
      <point x="219" y="574"/>
      <point x="174" y="458"/>
      <point x="174" y="305" type="curve" smooth="yes"/>
      <point x="174" y="140"/>
      <point x="221" y="33"/>
    </contour>
  </outline>
</glyph>
<glyph name="parenright" format="1">
  <advance width="325"/>
  <unicode hex="0029"/>
  <outline>
    <contour>
      <point x="280" y="306" type="curve" smooth="yes"/>
      <point x="280" y="125"/>
      <point x="204" y="-10"/>
      <point x="102" y="-110" type="curve"/>
      <point x="32" y="-57" type="line"/>
      <point x="106" y="32"/>
      <point x="151" y="148"/>
      <point x="151" y="301" type="curve" smooth="yes"/>
      <point x="151" y="466"/>
      <point x="104" y="573"/>
      <point x="32" y="663" type="curve"/>
      <point x="102" y="716" type="line"/>
      <point x="199" y="623"/>
      <point x="280" y="482"/>
    </contour>
  </outline>
</glyph>
<glyph name="asterisk" format="1">
  <advance width="440"/>
  <unicode hex="002A"/>
  <outline>
    <contour>
      <point x="415" y="444" type="line"/>
      <point x="367" y="362" type="line"/>
      <point x="258" y="435" type="line"/>
      <point x="268" y="304" type="line"/>
      <point x="172" y="304" type="line"/>
      <point x="181" y="437" type="line"/>
      <point x="71" y="363" type="line"/>
      <point x="25" y="444" type="line"/>
      <point x="152" y="502" type="line"/>
      <point x="25" y="560" type="line"/>
      <point x="71" y="642" type="line"/>
      <point x="181" y="568" type="line"/>
      <point x="172" y="700" type="line"/>
      <point x="268" y="700" type="line"/>
      <point x="258" y="569" type="line"/>
      <point x="367" y="643" type="line"/>
      <point x="415" y="561" type="line"/>
      <point x="286" y="503" type="line"/>
    </contour>
  </outline>
</glyph>
<glyph name="plus" format="1">
  <advance width="513"/>
  <unicode hex="002B"/>
  <outline>
    <contour>
      <point x="478" y="287" type="line"/>
      <point x="316" y="287" type="line"/>
      <point x="316" y="109" type="line"/>
      <point x="197" y="109" type="line"/>
      <point x="197" y="287" type="line"/>
      <point x="35" y="287" type="line"/>
      <point x="35" y="401" type="line"/>
      <point x="197" y="401" type="line"/>
      <point x="197" y="579" type="line"/>
      <point x="316" y="579" type="line"/>
      <point x="316" y="401" type="line"/>
      <point x="478" y="401" type="line"/>
    </contour>
  </outline>
</glyph>
<glyph name="comma" format="1">
  <advance width="246"/>
  <unicode hex="002C"/>
  <outline>
    <contour>
      <point x="205" y="147" type="line"/>
      <point x="131" y="-112" type="line"/>
      <point x="49" y="-112" type="line"/>
      <point x="62" y="147" type="line"/>
    </contour>
  </outline>
</glyph>
<glyph name="hyphen" format="1">
  <advance width="345"/>
  <unicode hex="002D"/>
  <unicode hex="2010"/>
  <unicode hex="2011"/>
  <outline>
    <contour>
      <point x="300" y="302" type="line"/>
      <point x="45" y="302" type="line"/>
      <point x="45" y="424" type="line"/>
      <point x="300" y="424" type="line"/>
    </contour>
  </outline>
</glyph>
<glyph name="period" format="1">
  <advance width="246"/>
  <unicode hex="002E"/>
  <outline>
    <contour>
      <point x="206" y="72" type="curve" smooth="yes"/>
      <point x="206" y="27"/>
      <point x="168" y="-11"/>
      <point x="123" y="-11" type="curve" smooth="yes"/>
      <point x="78" y="-11"/>
      <point x="40" y="27"/>
      <point x="40" y="72" type="curve" smooth="yes"/>
      <point x="40" y="117"/>
      <point x="78" y="155"/>
      <point x="123" y="155" type="curve" smooth="yes"/>
      <point x="168" y="155"/>
      <point x="206" y="117"/>
    </contour>
  </outline>
</glyph>
<glyph name="slash" format="1">
  <advance width="405"/>
  <unicode hex="002F"/>
  <outline>
    <contour>
      <point x="403" y="790" type="line"/>
      <point x="127" y="-90" type="line"/>
      <point x="2" y="-90" type="line"/>
      <point x="278" y="790" type="line"/>
    </contour>
  </outline>
</glyph>
<glyph name="zero" format="1">
  <advance width="528"/>
  <unicode hex="0030"/>
  <outline>
    <contour>
      <point x="485" y="351" type="curve" smooth="yes"/>
      <point x="485" y="149"/>
      <point x="424" y="-11"/>
      <point x="262" y="-11" type="curve" smooth="yes"/>
      <point x="99" y="-11"/>
      <point x="40" y="148"/>
      <point x="40" y="349" type="curve" smooth="yes"/>
      <point x="40" y="551"/>
      <point x="101" y="711"/>
      <point x="264" y="711" type="curve" smooth="yes"/>
      <point x="426" y="711"/>
      <point x="485" y="552"/>
    </contour>
    <contour>
      <point x="358" y="349" type="curve" smooth="yes"/>
      <point x="358" y="507"/>
      <point x="329" y="589"/>
      <point x="262" y="589" type="curve" smooth="yes"/>
      <point x="195" y="589"/>
      <point x="167" y="509"/>
      <point x="167" y="351" type="curve" smooth="yes"/>
      <point x="167" y="193"/>
      <point x="196" y="111"/>
      <point x="264" y="111" type="curve" smooth="yes"/>
      <point x="330" y="111"/>
      <point x="358" y="191"/>
    </contour>
  </outline>
</glyph>
<glyph name="one" format="1">
  <advance width="315"/>
  <unicode hex="0031"/>
  <outline>
    <contour>
      <point x="242" y="0" type="line"/>
      <point x="117" y="0" type="line"/>
      <point x="117" y="521" type="line"/>
      <point x="22" y="521" type="line"/>
      <point x="22" y="599" type="line"/>
      <point x="91" y="606"/>
      <point x="121" y="648"/>
      <point x="135" y="700" type="curve"/>
      <point x="242" y="700" type="line"/>
    </contour>
  </outline>
</glyph>
<glyph name="two" format="1">
  <advance width="520"/>
  <unicode hex="0032"/>
  <outline>
    <contour>
      <point x="446" y="0" type="line"/>
      <point x="45" y="0" type="line"/>
      <point x="52" y="214"/>
      <point x="119" y="303"/>
      <point x="251" y="398" type="curve" smooth="yes"/>
      <point x="299" y="433"/>
      <point x="317" y="462"/>
      <point x="317" y="504" type="curve" smooth="yes"/>
      <point x="317" y="559"/>
      <point x="289" y="586"/>
      <point x="237" y="586" type="curve" smooth="yes"/>
      <point x="193" y="586"/>
      <point x="158" y="561"/>
      <point x="125" y="523" type="curve"/>
      <point x="47" y="614" type="line"/>
      <point x="94" y="673"/>
      <point x="156" y="711"/>
      <point x="242" y="711" type="curve" smooth="yes"/>
      <point x="363" y="711"/>
      <point x="444" y="644"/>
      <point x="444" y="522" type="curve" smooth="yes"/>
      <point x="444" y="425"/>
      <point x="396" y="365"/>
      <point x="329" y="315" type="curve" smooth="yes"/>
      <point x="234" y="244"/>
      <point x="191" y="197"/>
      <point x="186" y="122" type="curve"/>
      <point x="446" y="122" type="line"/>
    </contour>
  </outline>
</glyph>
<glyph name="three" format="1">
  <advance width="508"/>
  <unicode hex="0033"/>
  <outline>
    <contour>
      <point x="456" y="210" type="curve" smooth="yes"/>
      <point x="456" y="73"/>
      <point x="373" y="-11"/>
      <point x="232" y="-11" type="curve" smooth="yes"/>
      <point x="138" y="-11"/>
      <point x="72" y="29"/>
      <point x="17" y="117" type="curve"/>
      <point x="116" y="187" type="line"/>
      <point x="154" y="132"/>
      <point x="189" y="112"/>
      <point x="236" y="112" type="curve" smooth="yes"/>
      <point x="296" y="112"/>
      <point x="330" y="150"/>
      <point x="330" y="207" type="curve" smooth="yes"/>
      <point x="330" y="278"/>
      <point x="283" y="308"/>
      <point x="218" y="308" type="curve" smooth="yes"/>
      <point x="170" y="308" type="line"/>
      <point x="170" y="429" type="line"/>
      <point x="219" y="429" type="line" smooth="yes"/>
      <point x="277" y="429"/>
      <point x="310" y="455"/>
      <point x="310" y="505" type="curve" smooth="yes"/>
      <point x="310" y="551"/>
      <point x="288" y="587"/>
      <point x="228" y="587" type="curve" smooth="yes"/>
      <point x="190" y="587"/>
      <point x="163" y="571"/>
      <point x="127" y="535" type="curve"/>
      <point x="42" y="620" type="line"/>
      <point x="93" y="677"/>
      <point x="142" y="711"/>
      <point x="236" y="711" type="curve" smooth="yes"/>
      <point x="357" y="711"/>
      <point x="436" y="636"/>
      <point x="436" y="520" type="curve" smooth="yes"/>
      <point x="436" y="441"/>
      <point x="396" y="396"/>
      <point x="338" y="375" type="curve"/>
      <point x="399" y="358"/>
      <point x="456" y="308"/>
    </contour>
  </outline>
</glyph>
<glyph name="four" format="1">
  <advance width="510"/>
  <unicode hex="0034"/>
  <outline>
    <contour>
      <point x="485" y="143" type="line"/>
      <point x="413" y="143" type="line"/>
      <point x="413" y="0" type="line"/>
      <point x="297" y="0" type="line"/>
      <point x="297" y="143" type="line"/>
      <point x="22" y="143" type="line"/>
      <point x="22" y="242" type="line"/>
      <point x="280" y="700" type="line"/>
      <point x="413" y="700" type="line"/>
      <point x="413" y="250" type="line"/>
      <point x="485" y="250" type="line"/>
    </contour>
    <contour>
      <point x="300" y="536" type="curve"/>
      <point x="290" y="509"/>
      <point x="274" y="474"/>
      <point x="251" y="432" type="curve" smooth="yes"/>
      <point x="196" y="330" type="line" smooth="yes"/>
      <point x="182" y="303"/>
      <point x="162" y="270"/>
      <point x="149" y="249" type="curve"/>
      <point x="169" y="249"/>
      <point x="200" y="250"/>
      <point x="231" y="250" type="curve" smooth="yes"/>
      <point x="297" y="250" type="line"/>
      <point x="297" y="419" type="line" smooth="yes"/>
      <point x="297" y="470"/>
      <point x="298" y="502"/>
    </contour>
  </outline>
</glyph>
<glyph name="five" format="1">
  <advance width="497"/>
  <unicode hex="0035"/>
  <outline>
    <contour>
      <point x="457" y="236" type="curve" smooth="yes"/>
      <point x="457" y="79"/>
      <point x="370" y="-11"/>
      <point x="220" y="-11" type="curve" smooth="yes"/>
      <point x="149" y="-11"/>
      <point x="77" y="18"/>
      <point x="27" y="65" type="curve"/>
      <point x="97" y="160" type="line"/>
      <point x="145" y="124"/>
      <point x="178" y="112"/>
      <point x="226" y="112" type="curve" smooth="yes"/>
      <point x="298" y="112"/>
      <point x="331" y="158"/>
      <point x="331" y="229" type="curve" smooth="yes"/>
      <point x="331" y="299"/>
      <point x="300" y="333"/>
      <point x="249" y="333" type="curve" smooth="yes"/>
      <point x="216" y="333"/>
      <point x="187" y="319"/>
      <point x="161" y="294" type="curve"/>
      <point x="59" y="342" type="line"/>
      <point x="76" y="700" type="line"/>
      <point x="421" y="700" type="line"/>
      <point x="421" y="579" type="line"/>
      <point x="187" y="579" type="line"/>
      <point x="178" y="426" type="line"/>
      <point x="203" y="442"/>
      <point x="231" y="452"/>
      <point x="277" y="452" type="curve" smooth="yes"/>
      <point x="379" y="452"/>
      <point x="457" y="381"/>
    </contour>
  </outline>
</glyph>
<glyph name="six" format="1">
  <advance width="512"/>
  <unicode hex="0036"/>
  <outline>
    <contour>
      <point x="474" y="234" type="curve" smooth="yes"/>
      <point x="474" y="75"/>
      <point x="385" y="-11"/>
      <point x="255" y="-11" type="curve" smooth="yes"/>
      <point x="132" y="-11"/>
      <point x="40" y="71"/>
      <point x="40" y="272" type="curve" smooth="yes"/>
      <point x="40" y="511"/>
      <point x="146" y="692"/>
      <point x="395" y="711" type="curve"/>
      <point x="395" y="586" type="line"/>
      <point x="250" y="578"/>
      <point x="188" y="487"/>
      <point x="165" y="399" type="curve"/>
      <point x="199" y="437"/>
      <point x="235" y="452"/>
      <point x="295" y="452" type="curve" smooth="yes"/>
      <point x="387" y="452"/>
      <point x="474" y="378"/>
    </contour>
    <contour>
      <point x="352" y="226" type="curve" smooth="yes"/>
      <point x="352" y="291"/>
      <point x="322" y="339"/>
      <point x="261" y="339" type="curve" smooth="yes"/>
      <point x="192" y="339"/>
      <point x="162" y="288"/>
      <point x="162" y="229" type="curve" smooth="yes"/>
      <point x="162" y="162"/>
      <point x="188" y="105"/>
      <point x="262" y="105" type="curve" smooth="yes"/>
      <point x="323" y="105"/>
      <point x="352" y="161"/>
    </contour>
  </outline>
</glyph>
<glyph name="seven" format="1">
  <advance width="459"/>
  <unicode hex="0037"/>
  <outline>
    <contour>
      <point x="423" y="575" type="line"/>
      <point x="308" y="426"/>
      <point x="257" y="249"/>
      <point x="257" y="0" type="curve"/>
      <point x="137" y="0" type="line"/>
      <point x="137" y="233"/>
      <point x="188" y="427"/>
      <point x="293" y="584" type="curve"/>
      <point x="27" y="584" type="line"/>
      <point x="27" y="700" type="line"/>
      <point x="423" y="700" type="line"/>
    </contour>
  </outline>
</glyph>
<glyph name="eight" format="1">
  <advance width="518"/>
  <unicode hex="0038"/>
  <outline>
    <contour>
      <point x="478" y="209" type="curve" smooth="yes"/>
      <point x="478" y="84"/>
      <point x="406" y="-11"/>
      <point x="259" y="-11" type="curve" smooth="yes"/>
      <point x="112" y="-11"/>
      <point x="40" y="84"/>
      <point x="40" y="209" type="curve" smooth="yes"/>
      <point x="40" y="301"/>
      <point x="86" y="353"/>
      <point x="140" y="378" type="curve"/>
      <point x="100" y="399"/>
      <point x="67" y="448"/>
      <point x="67" y="511" type="curve" smooth="yes"/>
      <point x="67" y="627"/>
      <point x="133" y="711"/>
      <point x="259" y="711" type="curve" smooth="yes"/>
      <point x="385" y="711"/>
      <point x="451" y="627"/>
      <point x="451" y="511" type="curve" smooth="yes"/>
      <point x="451" y="448"/>
      <point x="420" y="401"/>
      <point x="378" y="378" type="curve"/>
      <point x="432" y="353"/>
      <point x="478" y="301"/>
    </contour>
    <contour>
      <point x="337" y="512" type="curve" smooth="yes"/>
      <point x="337" y="559"/>
      <point x="317" y="598"/>
      <point x="259" y="598" type="curve" smooth="yes"/>
      <point x="201" y="598"/>
      <point x="181" y="559"/>
      <point x="181" y="512" type="curve" smooth="yes"/>
      <point x="181" y="465"/>
      <point x="208" y="426"/>
      <point x="259" y="426" type="curve" smooth="yes"/>
      <point x="310" y="426"/>
      <point x="337" y="465"/>
    </contour>
    <contour>
      <point x="358" y="209" type="curve" smooth="yes"/>
      <point x="358" y="272"/>
      <point x="322" y="313"/>
      <point x="259" y="313" type="curve" smooth="yes"/>
      <point x="196" y="313"/>
      <point x="160" y="272"/>
      <point x="160" y="209" type="curve" smooth="yes"/>
      <point x="160" y="150"/>
      <point x="197" y="104"/>
      <point x="259" y="104" type="curve" smooth="yes"/>
      <point x="321" y="104"/>
      <point x="358" y="150"/>
    </contour>
  </outline>
</glyph>
<glyph name="nine" format="1">
  <advance width="512"/>
  <unicode hex="0039"/>
  <outline>
    <contour>
      <point x="472" y="428" type="curve" smooth="yes"/>
      <point x="472" y="189"/>
      <point x="366" y="8"/>
      <point x="117" y="-11" type="curve"/>
      <point x="117" y="114" type="line"/>
      <point x="262" y="122"/>
      <point x="324" y="213"/>
      <point x="347" y="301" type="curve"/>
      <point x="313" y="263"/>
      <point x="277" y="248"/>
      <point x="217" y="248" type="curve" smooth="yes"/>
      <point x="125" y="248"/>
      <point x="38" y="322"/>
      <point x="38" y="466" type="curve" smooth="yes"/>
      <point x="38" y="625"/>
      <point x="127" y="711"/>
      <point x="257" y="711" type="curve" smooth="yes"/>
      <point x="380" y="711"/>
      <point x="472" y="629"/>
    </contour>
    <contour>
      <point x="350" y="471" type="curve" smooth="yes"/>
      <point x="350" y="538"/>
      <point x="324" y="595"/>
      <point x="250" y="595" type="curve" smooth="yes"/>
      <point x="189" y="595"/>
      <point x="160" y="539"/>
      <point x="160" y="474" type="curve" smooth="yes"/>
      <point x="160" y="409"/>
      <point x="190" y="361"/>
      <point x="251" y="361" type="curve" smooth="yes"/>
      <point x="320" y="361"/>
      <point x="350" y="412"/>
    </contour>
  </outline>
</glyph>
<glyph name="colon" format="1">
  <advance width="246"/>
  <unicode hex="003A"/>
  <outline>
    <contour>
      <point x="206" y="453" type="curve" smooth="yes"/>
      <point x="206" y="408"/>
      <point x="168" y="370"/>
      <point x="123" y="370" type="curve" smooth="yes"/>
      <point x="78" y="370"/>
      <point x="40" y="408"/>
      <point x="40" y="453" type="curve" smooth="yes"/>
      <point x="40" y="498"/>
      <point x="78" y="536"/>
      <point x="123" y="536" type="curve" smooth="yes"/>
      <point x="168" y="536"/>
      <point x="206" y="498"/>
    </contour>
    <contour>
      <point x="206" y="72" type="curve" smooth="yes"/>
      <point x="206" y="27"/>
      <point x="168" y="-11"/>
      <point x="123" y="-11" type="curve" smooth="yes"/>
      <point x="78" y="-11"/>
      <point x="40" y="27"/>
      <point x="40" y="72" type="curve" smooth="yes"/>
      <point x="40" y="117"/>
      <point x="78" y="155"/>
      <point x="123" y="155" type="curve" smooth="yes"/>
      <point x="168" y="155"/>
      <point x="206" y="117"/>
    </contour>
  </outline>
</glyph>
<glyph name="semicolon" format="1">
  <advance width="246"/>
  <unicode hex="003B"/>
  <outline>
    <contour>
      <point x="206" y="453" type="curve" smooth="yes"/>
      <point x="206" y="408"/>
      <point x="168" y="370"/>
      <point x="123" y="370" type="curve" smooth="yes"/>
      <point x="78" y="370"/>
      <point x="40" y="408"/>
      <point x="40" y="453" type="curve" smooth="yes"/>
      <point x="40" y="498"/>
      <point x="78" y="536"/>
      <point x="123" y="536" type="curve" smooth="yes"/>
      <point x="168" y="536"/>
      <point x="206" y="498"/>
    </contour>
    <contour>
      <point x="199" y="147" type="line"/>
      <point x="125" y="-112" type="line"/>
      <point x="43" y="-112" type="line"/>
      <point x="56" y="147" type="line"/>
    </contour>
  </outline>
</glyph>
<glyph name="greater" format="1">
  <advance width="410"/>
  <unicode hex="003E"/>
  <outline>
    <contour>
      <point x="368" y="297" type="line"/>
      <point x="57" y="28" type="line"/>
      <point x="57" y="187" type="line"/>
      <point x="247" y="343" type="line"/>
      <point x="57" y="500" type="line"/>
      <point x="57" y="660" type="line"/>
      <point x="368" y="391" type="line"/>
    </contour>
  </outline>
</glyph>
<glyph name="question" format="1">
  <advance width="444"/>
  <unicode hex="003F"/>
  <outline>
    <contour>
      <point x="415" y="527" type="curve" smooth="yes"/>
      <point x="415" y="446"/>
      <point x="377" y="398"/>
      <point x="321" y="353" type="curve" smooth="yes"/>
      <point x="280" y="320"/>
      <point x="260" y="281"/>
      <point x="260" y="210" type="curve"/>
      <point x="142" y="210" type="line"/>
      <point x="142" y="320"/>
      <point x="166" y="372"/>
      <point x="249" y="437" type="curve" smooth="yes"/>
      <point x="274" y="457"/>
      <point x="291" y="488"/>
      <point x="291" y="516" type="curve" smooth="yes"/>
      <point x="291" y="558"/>
      <point x="264" y="588"/>
      <point x="207" y="588" type="curve" smooth="yes"/>
      <point x="164" y="588"/>
      <point x="127" y="562"/>
      <point x="92" y="518" type="curve"/>
      <point x="9" y="597" type="line"/>
      <point x="60" y="667"/>
      <point x="121" y="711"/>
      <point x="219" y="711" type="curve" smooth="yes"/>
      <point x="330" y="711"/>
      <point x="415" y="652"/>
    </contour>
    <contour>
      <point x="282" y="70" type="curve" smooth="yes"/>
      <point x="282" y="26"/>
      <point x="245" y="-11"/>
      <point x="201" y="-11" type="curve" smooth="yes"/>
      <point x="157" y="-11"/>
      <point x="120" y="26"/>
      <point x="120" y="70" type="curve" smooth="yes"/>
      <point x="120" y="114"/>
      <point x="157" y="151"/>
      <point x="201" y="151" type="curve" smooth="yes"/>
      <point x="245" y="151"/>
      <point x="282" y="114"/>
    </contour>
  </outline>
</glyph>
<glyph name="at" format="1">
  <advance width="636"/>
  <unicode hex="0040"/>
  <outline>
    <contour>
      <point x="596" y="360" type="curve" smooth="yes"/>
      <point x="596" y="237"/>
      <point x="567" y="152"/>
      <point x="478" y="152" type="curve" smooth="yes"/>
      <point x="439" y="152"/>
      <point x="409" y="178"/>
      <point x="397" y="205" type="curve"/>
      <point x="376" y="174"/>
      <point x="335" y="148"/>
      <point x="298" y="148" type="curve" smooth="yes"/>
      <point x="236" y="148"/>
      <point x="175" y="193"/>
      <point x="175" y="292" type="curve" smooth="yes"/>
      <point x="175" y="383"/>
      <point x="232" y="426"/>
      <point x="294" y="426" type="curve" smooth="yes"/>
      <point x="320" y="426"/>
      <point x="346" y="417"/>
      <point x="366" y="407" type="curve"/>
      <point x="366" y="446" type="line" smooth="yes"/>
      <point x="366" y="481"/>
      <point x="348" y="495"/>
      <point x="309" y="495" type="curve" smooth="yes"/>
      <point x="284" y="495"/>
      <point x="262" y="489"/>
      <point x="234" y="466" type="curve"/>
      <point x="204" y="528" type="line"/>
      <point x="239" y="555"/>
      <point x="279" y="567"/>
      <point x="315" y="567" type="curve" smooth="yes"/>
      <point x="397" y="567"/>
      <point x="444" y="526"/>
      <point x="444" y="440" type="curve" smooth="yes"/>
      <point x="444" y="266" type="line" smooth="yes"/>
      <point x="444" y="233"/>
      <point x="452" y="210"/>
      <point x="481" y="210" type="curve" smooth="yes"/>
      <point x="521" y="210"/>
      <point x="539" y="253"/>
      <point x="539" y="362" type="curve" smooth="yes"/>
      <point x="539" y="547"/>
      <point x="447" y="653"/>
      <point x="318" y="653" type="curve" smooth="yes"/>
      <point x="185" y="653"/>
      <point x="99" y="534"/>
      <point x="99" y="352" type="curve" smooth="yes"/>
      <point x="99" y="170"/>
      <point x="186" y="47"/>
      <point x="320" y="47" type="curve" smooth="yes"/>
      <point x="353" y="47"/>
      <point x="385" y="52"/>
      <point x="421" y="72" type="curve"/>
      <point x="443" y="25" type="line"/>
      <point x="396" y="-5"/>
      <point x="362" y="-11"/>
      <point x="318" y="-11" type="curve" smooth="yes"/>
      <point x="158" y="-11"/>
      <point x="40" y="131"/>
      <point x="40" y="350" type="curve" smooth="yes"/>
      <point x="40" y="569"/>
      <point x="158" y="711"/>
      <point x="318" y="711" type="curve" smooth="yes"/>
      <point x="482" y="711"/>
      <point x="596" y="571"/>
    </contour>
    <contour>
      <point x="366" y="271" type="curve"/>
      <point x="366" y="329" type="line"/>
      <point x="353" y="344"/>
      <point x="331" y="355"/>
      <point x="302" y="355" type="curve" smooth="yes"/>
      <point x="267" y="355"/>
      <point x="254" y="329"/>
      <point x="254" y="294" type="curve" smooth="yes"/>
      <point x="254" y="252"/>
      <point x="264" y="222"/>
      <point x="306" y="222" type="curve" smooth="yes"/>
      <point x="331" y="222"/>
      <point x="354" y="241"/>
    </contour>
  </outline>
</glyph>
<glyph name="A" format="1">
  <advance width="536"/>
  <unicode hex="0041"/>
  <outline>
    <contour>
      <point x="508" y="0" type="line"/>
      <point x="379" y="0" type="line"/>
      <point x="346" y="146" type="line"/>
      <point x="189" y="146" type="line"/>
      <point x="156" y="0" type="line"/>
      <point x="28" y="0" type="line"/>
      <point x="207" y="700" type="line"/>
      <point x="329" y="700" type="line"/>
    </contour>
    <contour>
      <point x="319" y="263" type="line"/>
      <point x="300" y="346" type="line" smooth="yes"/>
      <point x="288" y="400"/>
      <point x="272" y="481"/>
      <point x="267" y="516" type="curve"/>
      <point x="262" y="480"/>
      <point x="248" y="405"/>
      <point x="235" y="348" type="curve" smooth="yes"/>
      <point x="216" y="263" type="line"/>
    </contour>
  </outline>
</glyph>
<glyph name="B" format="1">
  <advance width="513"/>
  <unicode hex="0042"/>
  <outline>
    <contour>
      <point x="479" y="217" type="curve" smooth="yes"/>
      <point x="479" y="73"/>
      <point x="397" y="0"/>
      <point x="247" y="0" type="curve" smooth="yes"/>
      <point x="65" y="0" type="line"/>
      <point x="65" y="700" type="line"/>
      <point x="254" y="700" type="line" smooth="yes"/>
      <point x="382" y="700"/>
      <point x="462" y="629"/>
      <point x="462" y="513" type="curve" smooth="yes"/>
      <point x="462" y="454"/>
      <point x="432" y="400"/>
      <point x="376" y="376" type="curve"/>
      <point x="432" y="354"/>
      <point x="479" y="303"/>
    </contour>
    <contour>
      <point x="338" y="508" type="curve" smooth="yes"/>
      <point x="338" y="556"/>
      <point x="316" y="585"/>
      <point x="255" y="585" type="curve" smooth="yes"/>
      <point x="187" y="585" type="line"/>
      <point x="187" y="432" type="line"/>
      <point x="258" y="432" type="line" smooth="yes"/>
      <point x="319" y="432"/>
      <point x="338" y="468"/>
    </contour>
    <contour>
      <point x="355" y="214" type="curve" smooth="yes"/>
      <point x="355" y="287"/>
      <point x="323" y="320"/>
      <point x="250" y="320" type="curve" smooth="yes"/>
      <point x="187" y="320" type="line"/>
      <point x="187" y="115" type="line"/>
      <point x="254" y="115" type="line" smooth="yes"/>
      <point x="325" y="115"/>
      <point x="355" y="156"/>
    </contour>
  </outline>
</glyph>
<glyph name="C" format="1">
  <advance width="500"/>
  <unicode hex="0043"/>
  <outline>
    <contour>
      <point x="468" y="168" type="line"/>
      <point x="435" y="53"/>
      <point x="374" y="-11"/>
      <point x="267" y="-11" type="curve" smooth="yes"/>
      <point x="112" y="-11"/>
      <point x="40" y="148"/>
      <point x="40" y="349" type="curve" smooth="yes"/>
      <point x="40" y="551"/>
      <point x="114" y="711"/>
      <point x="269" y="711" type="curve" smooth="yes"/>
      <point x="388" y="711"/>
      <point x="440" y="635"/>
      <point x="467" y="534" type="curve"/>
      <point x="350" y="496" type="line"/>
      <point x="332" y="560"/>
      <point x="313" y="586"/>
      <point x="267" y="586" type="curve" smooth="yes"/>
      <point x="200" y="586"/>
      <point x="168" y="500"/>
      <point x="168" y="351" type="curve" smooth="yes"/>
      <point x="168" y="202"/>
      <point x="201" y="114"/>
      <point x="269" y="114" type="curve" smooth="yes"/>
      <point x="312" y="114"/>
      <point x="334" y="138"/>
      <point x="360" y="214" type="curve"/>
    </contour>
  </outline>
</glyph>
<glyph name="D" format="1">
  <advance width="530"/>
  <unicode hex="0044"/>
  <outline>
    <contour>
      <point x="490" y="351" type="curve" smooth="yes"/>
      <point x="490" y="105"/>
      <point x="384" y="0"/>
      <point x="220" y="0" type="curve" smooth="yes"/>
      <point x="65" y="0" type="line"/>
      <point x="65" y="700" type="line"/>
      <point x="223" y="700" type="line" smooth="yes"/>
      <point x="391" y="700"/>
      <point x="490" y="597"/>
    </contour>
    <contour>
      <point x="362" y="349" type="curve" smooth="yes"/>
      <point x="362" y="478"/>
      <point x="335" y="578"/>
      <point x="223" y="578" type="curve" smooth="yes"/>
      <point x="190" y="578" type="line"/>
      <point x="190" y="122" type="line"/>
      <point x="223" y="122" type="line" smooth="yes"/>
      <point x="335" y="122"/>
      <point x="362" y="220"/>
    </contour>
  </outline>
</glyph>
<glyph name="E" format="1">
  <advance width="476"/>
  <unicode hex="0045"/>
  <outline>
    <contour>
      <point x="433" y="0" type="line"/>
      <point x="65" y="0" type="line"/>
      <point x="65" y="700" type="line"/>
      <point x="424" y="700" type="line"/>
      <point x="424" y="580" type="line"/>
      <point x="190" y="580" type="line"/>
      <point x="190" y="432" type="line"/>
      <point x="347" y="432" type="line"/>
      <point x="347" y="314" type="line"/>
      <point x="190" y="314" type="line"/>
      <point x="190" y="120" type="line"/>
      <point x="433" y="120" type="line"/>
    </contour>
  </outline>
</glyph>
<glyph name="F" format="1">
  <advance width="464"/>
  <unicode hex="0046"/>
  <outline>
    <contour>
      <point x="434" y="579" type="line"/>
      <point x="190" y="579" type="line"/>
      <point x="190" y="424" type="line"/>
      <point x="354" y="424" type="line"/>
      <point x="354" y="303" type="line"/>
      <point x="190" y="303" type="line"/>
      <point x="190" y="0" type="line"/>
      <point x="65" y="0" type="line"/>
      <point x="65" y="700" type="line"/>
      <point x="434" y="700" type="line"/>
    </contour>
  </outline>
</glyph>
<glyph name="G" format="1">
  <advance width="538"/>
  <unicode hex="0047"/>
  <outline>
    <contour>
      <point x="494" y="253" type="line" smooth="yes"/>
      <point x="494" y="85"/>
      <point x="418" y="-11"/>
      <point x="272" y="-11" type="curve" smooth="yes"/>
      <point x="109" y="-11"/>
      <point x="40" y="148"/>
      <point x="40" y="349" type="curve" smooth="yes"/>
      <point x="40" y="551"/>
      <point x="111" y="711"/>
      <point x="274" y="711" type="curve" smooth="yes"/>
      <point x="380" y="711"/>
      <point x="457" y="655"/>
      <point x="487" y="534" type="curve"/>
      <point x="370" y="496" type="line"/>
      <point x="352" y="562"/>
      <point x="320" y="586"/>
      <point x="272" y="586" type="curve" smooth="yes"/>
      <point x="197" y="586"/>
      <point x="168" y="500"/>
      <point x="168" y="351" type="curve" smooth="yes"/>
      <point x="168" y="202"/>
      <point x="199" y="114"/>
      <point x="274" y="114" type="curve" smooth="yes"/>
      <point x="350" y="114"/>
      <point x="373" y="152"/>
      <point x="373" y="256" type="curve"/>
      <point x="273" y="256" type="line"/>
      <point x="273" y="373" type="line"/>
      <point x="494" y="373" type="line"/>
    </contour>
  </outline>
</glyph>
<glyph name="H" format="1">
  <advance width="540"/>
  <unicode hex="0048"/>
  <outline>
    <contour>
      <point x="475" y="0" type="line"/>
      <point x="350" y="0" type="line"/>
      <point x="350" y="302" type="line"/>
      <point x="190" y="302" type="line"/>
      <point x="190" y="0" type="line"/>
      <point x="65" y="0" type="line"/>
      <point x="65" y="700" type="line"/>
      <point x="190" y="700" type="line"/>
      <point x="190" y="424" type="line"/>
      <point x="350" y="424" type="line"/>
      <point x="350" y="700" type="line"/>
      <point x="475" y="700" type="line"/>
    </contour>
  </outline>
</glyph>
<glyph name="J" format="1">
  <advance width="480"/>
  <unicode hex="004A"/>
  <outline>
    <contour>
      <point x="418" y="270" type="line" smooth="yes"/>
      <point x="418" y="94"/>
      <point x="364" y="-11"/>
      <point x="215" y="-11" type="curve" smooth="yes"/>
      <point x="102" y="-11"/>
      <point x="33" y="64"/>
      <point x="18" y="196" type="curve"/>
      <point x="137" y="232" type="line"/>
      <point x="144" y="161"/>
      <point x="166" y="113"/>
      <point x="218" y="113" type="curve" smooth="yes"/>
      <point x="270" y="113"/>
      <point x="293" y="150"/>
      <point x="293" y="266" type="curve" smooth="yes"/>
      <point x="293" y="700" type="line"/>
      <point x="418" y="700" type="line"/>
    </contour>
  </outline>
</glyph>
<glyph name="K" format="1">
  <advance width="524"/>
  <unicode hex="004B"/>
  <outline>
    <contour>
      <point x="506" y="0" type="line"/>
      <point x="366" y="0" type="line"/>
      <point x="253" y="301" type="line"/>
      <point x="190" y="188" type="line"/>
      <point x="190" y="0" type="line"/>
      <point x="65" y="0" type="line"/>
      <point x="65" y="700" type="line"/>
      <point x="190" y="700" type="line"/>
      <point x="190" y="493" type="line" smooth="yes"/>
      <point x="190" y="452"/>
      <point x="189" y="417"/>
      <point x="188" y="386" type="curve"/>
      <point x="202" y="415"/>
      <point x="224" y="459"/>
      <point x="243" y="494" type="curve" smooth="yes"/>
      <point x="352" y="700" type="line"/>
      <point x="485" y="700" type="line"/>
      <point x="336" y="438" type="line"/>
    </contour>
  </outline>
</glyph>
<glyph name="L" format="1">
  <advance width="443"/>
  <unicode hex="004C"/>
  <outline>
    <contour>
      <point x="409" y="0" type="line"/>
      <point x="65" y="0" type="line"/>
      <point x="65" y="700" type="line"/>
      <point x="190" y="700" type="line"/>
      <point x="190" y="122" type="line"/>
      <point x="409" y="122" type="line"/>
    </contour>
  </outline>
</glyph>
<glyph name="M" format="1">
  <advance width="640"/>
  <unicode hex="004D"/>
  <outline>
    <contour>
      <point x="575" y="0" type="line"/>
      <point x="461" y="0" type="line"/>
      <point x="461" y="226" type="line" smooth="yes"/>
      <point x="461" y="309"/>
      <point x="462" y="386"/>
      <point x="463" y="438" type="curve"/>
      <point x="449" y="388"/>
      <point x="426" y="310"/>
      <point x="400" y="230" type="curve" smooth="yes"/>
      <point x="319" y="-18" type="line"/>
      <point x="238" y="230" type="line" smooth="yes"/>
      <point x="212" y="309"/>
      <point x="189" y="388"/>
      <point x="175" y="438" type="curve"/>
      <point x="176" y="386"/>
      <point x="177" y="309"/>
      <point x="177" y="226" type="curve" smooth="yes"/>
      <point x="177" y="0" type="line"/>
      <point x="65" y="0" type="line"/>
      <point x="65" y="700" type="line"/>
      <point x="191" y="700" type="line"/>
      <point x="274" y="441" type="line" smooth="yes"/>
      <point x="295" y="376"/>
      <point x="315" y="316"/>
      <point x="321" y="283" type="curve"/>
      <point x="328" y="318"/>
      <point x="348" y="379"/>
      <point x="368" y="441" type="curve" smooth="yes"/>
      <point x="451" y="700" type="line"/>
      <point x="575" y="700" type="line"/>
    </contour>
  </outline>
</glyph>
<glyph name="N" format="1">
  <advance width="544"/>
  <unicode hex="004E"/>
  <outline>
    <contour>
      <point x="479" y="0" type="line"/>
      <point x="359" y="0" type="line"/>
      <point x="230" y="312" type="line" smooth="yes"/>
      <point x="212" y="356"/>
      <point x="190" y="413"/>
      <point x="177" y="454" type="curve"/>
      <point x="178" y="411"/>
      <point x="179" y="339"/>
      <point x="179" y="295" type="curve" smooth="yes"/>
      <point x="179" y="0" type="line"/>
      <point x="65" y="0" type="line"/>
      <point x="65" y="700" type="line"/>
      <point x="191" y="700" type="line"/>
      <point x="314" y="393" type="line" smooth="yes"/>
      <point x="331" y="351"/>
      <point x="356" y="286"/>
      <point x="369" y="247" type="curve"/>
      <point x="368" y="290"/>
      <point x="365" y="366"/>
      <point x="365" y="410" type="curve" smooth="yes"/>
      <point x="365" y="700" type="line"/>
      <point x="479" y="700" type="line"/>
    </contour>
  </outline>
</glyph>
<glyph name="O" format="1">
  <advance width="545"/>
  <unicode hex="004F"/>
  <outline>
    <contour>
      <point x="505" y="351" type="curve" smooth="yes"/>
      <point x="505" y="149"/>
      <point x="434" y="-11"/>
      <point x="272" y="-11" type="curve" smooth="yes"/>
      <point x="109" y="-11"/>
      <point x="40" y="148"/>
      <point x="40" y="349" type="curve" smooth="yes"/>
      <point x="40" y="551"/>
      <point x="111" y="711"/>
      <point x="274" y="711" type="curve" smooth="yes"/>
      <point x="436" y="711"/>
      <point x="505" y="552"/>
    </contour>
    <contour>
      <point x="377" y="349" type="curve" smooth="yes"/>
      <point x="377" y="498"/>
      <point x="346" y="586"/>
      <point x="272" y="586" type="curve" smooth="yes"/>
      <point x="197" y="586"/>
      <point x="168" y="500"/>
      <point x="168" y="351" type="curve" smooth="yes"/>
      <point x="168" y="202"/>
      <point x="199" y="114"/>
      <point x="274" y="114" type="curve" smooth="yes"/>
      <point x="348" y="114"/>
      <point x="377" y="200"/>
    </contour>
  </outline>
</glyph>
<glyph name="P" format="1">
  <advance width="498"/>
  <unicode hex="0050"/>
  <outline>
    <contour>
      <point x="474" y="477" type="curve" smooth="yes"/>
      <point x="474" y="326"/>
      <point x="365" y="251"/>
      <point x="246" y="251" type="curve" smooth="yes"/>
      <point x="190" y="251" type="line"/>
      <point x="190" y="0" type="line"/>
      <point x="65" y="0" type="line"/>
      <point x="65" y="700" type="line"/>
      <point x="251" y="700" type="line" smooth="yes"/>
      <point x="384" y="700"/>
      <point x="474" y="624"/>
    </contour>
    <contour>
      <point x="349" y="475" type="curve" smooth="yes"/>
      <point x="349" y="533"/>
      <point x="323" y="578"/>
      <point x="250" y="578" type="curve" smooth="yes"/>
      <point x="190" y="578" type="line"/>
      <point x="190" y="373" type="line"/>
      <point x="252" y="373" type="line" smooth="yes"/>
      <point x="316" y="373"/>
      <point x="349" y="411"/>
    </contour>
  </outline>
</glyph>
<glyph name="Q" format="1">
  <advance width="545"/>
  <unicode hex="0051"/>
  <outline>
    <contour>
      <point x="505" y="351" type="curve" smooth="yes"/>
      <point x="505" y="236"/>
      <point x="475" y="136"/>
      <point x="424" y="70" type="curve"/>
      <point x="473" y="-11" type="line"/>
      <point x="388" y="-63" type="line"/>
      <point x="347" y="6" type="line"/>
      <point x="323" y="-5"/>
      <point x="298" y="-11"/>
      <point x="272" y="-11" type="curve" smooth="yes"/>
      <point x="109" y="-11"/>
      <point x="40" y="148"/>
      <point x="40" y="349" type="curve" smooth="yes"/>
      <point x="40" y="551"/>
      <point x="111" y="711"/>
      <point x="274" y="711" type="curve" smooth="yes"/>
      <point x="436" y="711"/>
      <point x="505" y="552"/>
    </contour>
    <contour>
      <point x="377" y="349" type="curve" smooth="yes"/>
      <point x="377" y="498"/>
      <point x="346" y="586"/>
      <point x="272" y="586" type="curve" smooth="yes"/>
      <point x="197" y="586"/>
      <point x="168" y="500"/>
      <point x="168" y="351" type="curve" smooth="yes"/>
      <point x="168" y="202"/>
      <point x="199" y="106"/>
      <point x="274" y="106" type="curve" smooth="yes"/>
      <point x="278" y="106"/>
      <point x="282" y="106"/>
      <point x="286" y="107" type="curve"/>
      <point x="236" y="190" type="line"/>
      <point x="321" y="242" type="line"/>
      <point x="359" y="178" type="line"/>
      <point x="371" y="216"/>
      <point x="377" y="270"/>
    </contour>
  </outline>
</glyph>
<glyph name="R" format="1">
  <advance width="510"/>
  <unicode hex="0052"/>
  <outline>
    <contour>
      <point x="476" y="0" type="line"/>
      <point x="340" y="0" type="line"/>
      <point x="231" y="266" type="line"/>
      <point x="190" y="266" type="line"/>
      <point x="190" y="0" type="line"/>
      <point x="65" y="0" type="line"/>
      <point x="65" y="700" type="line"/>
      <point x="251" y="700" type="line" smooth="yes"/>
      <point x="387" y="700"/>
      <point x="474" y="627"/>
      <point x="474" y="482" type="curve" smooth="yes"/>
      <point x="474" y="384"/>
      <point x="424" y="323"/>
      <point x="356" y="291" type="curve"/>
    </contour>
    <contour>
      <point x="349" y="480" type="curve" smooth="yes"/>
      <point x="349" y="543"/>
      <point x="320" y="578"/>
      <point x="245" y="578" type="curve" smooth="yes"/>
      <point x="190" y="578" type="line"/>
      <point x="190" y="383" type="line"/>
      <point x="252" y="383" type="line" smooth="yes"/>
      <point x="316" y="383"/>
      <point x="349" y="416"/>
    </contour>
  </outline>
</glyph>
<glyph name="S" format="1">
  <advance width="471"/>
  <unicode hex="0053"/>
  <outline>
    <contour>
      <point x="443" y="189" type="curve" smooth="yes"/>
      <point x="443" y="73"/>
      <point x="363" y="-11"/>
      <point x="233" y="-11" type="curve" smooth="yes"/>
      <point x="138" y="-11"/>
      <point x="72" y="39"/>
      <point x="24" y="99" type="curve"/>
      <point x="109" y="190" type="line"/>
      <point x="151" y="136"/>
      <point x="196" y="110"/>
      <point x="238" y="110" type="curve" smooth="yes"/>
      <point x="290" y="110"/>
      <point x="316" y="139"/>
      <point x="316" y="186" type="curve" smooth="yes"/>
      <point x="316" y="226"/>
      <point x="291" y="258"/>
      <point x="209" y="300" type="curve" smooth="yes"/>
      <point x="105" y="354"/>
      <point x="42" y="407"/>
      <point x="42" y="523" type="curve" smooth="yes"/>
      <point x="42" y="628"/>
      <point x="120" y="711"/>
      <point x="238" y="711" type="curve" smooth="yes"/>
      <point x="325" y="711"/>
      <point x="379" y="676"/>
      <point x="429" y="611" type="curve"/>
      <point x="346" y="528" type="line"/>
      <point x="305" y="574"/>
      <point x="283" y="590"/>
      <point x="235" y="590" type="curve" smooth="yes"/>
      <point x="195" y="590"/>
      <point x="169" y="564"/>
      <point x="169" y="529" type="curve" smooth="yes"/>
      <point x="169" y="487"/>
      <point x="193" y="461"/>
      <point x="269" y="420" type="curve" smooth="yes"/>
      <point x="390" y="355"/>
      <point x="443" y="307"/>
    </contour>
  </outline>
</glyph>
<glyph name="T" format="1">
  <advance width="465"/>
  <unicode hex="0054"/>
  <outline>
    <contour>
      <point x="440" y="580" type="line"/>
      <point x="295" y="580" type="line"/>
      <point x="295" y="0" type="line"/>
      <point x="170" y="0" type="line"/>
      <point x="170" y="580" type="line"/>
      <point x="25" y="580" type="line"/>
      <point x="25" y="700" type="line"/>
      <point x="440" y="700" type="line"/>
    </contour>
  </outline>
</glyph>
<glyph name="U" format="1">
  <advance width="540"/>
  <unicode hex="0055"/>
  <outline>
    <contour>
      <point x="478" y="280" type="line" smooth="yes"/>
      <point x="478" y="98"/>
      <point x="424" y="-11"/>
      <point x="270" y="-11" type="curve" smooth="yes"/>
      <point x="121" y="-11"/>
      <point x="62" y="104"/>
      <point x="62" y="278" type="curve" smooth="yes"/>
      <point x="62" y="700" type="line"/>
      <point x="187" y="700" type="line"/>
      <point x="187" y="278" type="line" smooth="yes"/>
      <point x="187" y="157"/>
      <point x="214" y="113"/>
      <point x="271" y="113" type="curve" smooth="yes"/>
      <point x="329" y="113"/>
      <point x="353" y="157"/>
      <point x="353" y="278" type="curve" smooth="yes"/>
      <point x="353" y="700" type="line"/>
      <point x="478" y="700" type="line"/>
    </contour>
  </outline>
</glyph>
<glyph name="V" format="1">
  <advance width="512"/>
  <unicode hex="0056"/>
  <outline>
    <contour>
      <point x="485" y="700" type="line"/>
      <point x="318" y="0" type="line"/>
      <point x="196" y="0" type="line"/>
      <point x="27" y="700" type="line"/>
      <point x="156" y="700" type="line"/>
      <point x="224" y="362" type="line" smooth="yes"/>
      <point x="234" y="310"/>
      <point x="253" y="215"/>
      <point x="257" y="184" type="curve"/>
      <point x="261" y="215"/>
      <point x="280" y="312"/>
      <point x="290" y="362" type="curve" smooth="yes"/>
      <point x="357" y="700" type="line"/>
    </contour>
  </outline>
</glyph>
<glyph name="W" format="1">
  <advance width="659"/>
  <unicode hex="0057"/>
  <outline>
    <contour>
      <point x="639" y="700" type="line"/>
      <point x="526" y="0" type="line"/>
      <point x="418" y="0" type="line"/>
      <point x="359" y="294" type="line" smooth="yes"/>
      <point x="345" y="362"/>
      <point x="335" y="422"/>
      <point x="328" y="470" type="curve"/>
      <point x="321" y="421"/>
      <point x="311" y="362"/>
      <point x="297" y="294" type="curve" smooth="yes"/>
      <point x="238" y="0" type="line"/>
      <point x="133" y="0" type="line"/>
      <point x="20" y="700" type="line"/>
      <point x="138" y="700" type="line"/>
      <point x="172" y="439" type="line" smooth="yes"/>
      <point x="179" y="388"/>
      <point x="189" y="289"/>
      <point x="194" y="241" type="curve"/>
      <point x="200" y="289"/>
      <point x="217" y="388"/>
      <point x="227" y="439" type="curve" smooth="yes"/>
      <point x="278" y="700" type="line"/>
      <point x="381" y="700" type="line"/>
      <point x="432" y="439" type="line" smooth="yes"/>
      <point x="442" y="388"/>
      <point x="460" y="289"/>
      <point x="466" y="241" type="curve"/>
      <point x="471" y="289"/>
      <point x="481" y="388"/>
      <point x="488" y="439" type="curve" smooth="yes"/>
      <point x="522" y="700" type="line"/>
    </contour>
  </outline>
</glyph>
<glyph name="X" format="1">
  <advance width="514"/>
  <unicode hex="0058"/>
  <outline>
    <contour>
      <point x="492" y="0" type="line"/>
      <point x="357" y="0" type="line"/>
      <point x="299" y="132" type="line" smooth="yes"/>
      <point x="285" y="163"/>
      <point x="267" y="211"/>
      <point x="257" y="239" type="curve"/>
      <point x="248" y="211"/>
      <point x="229" y="163"/>
      <point x="215" y="132" type="curve" smooth="yes"/>
      <point x="157" y="0" type="line"/>
      <point x="22" y="0" type="line"/>
      <point x="189" y="359" type="line"/>
      <point x="31" y="700" type="line"/>
      <point x="166" y="700" type="line"/>
      <point x="215" y="588" type="line" smooth="yes"/>
      <point x="229" y="557"/>
      <point x="248" y="509"/>
      <point x="257" y="481" type="curve"/>
      <point x="267" y="509"/>
      <point x="285" y="557"/>
      <point x="299" y="588" type="curve" smooth="yes"/>
      <point x="348" y="700" type="line"/>
      <point x="483" y="700" type="line"/>
      <point x="324" y="360" type="line"/>
    </contour>
  </outline>
</glyph>
<glyph name="Y" format="1">
  <advance width="520"/>
  <unicode hex="0059"/>
  <outline>
    <contour>
      <point x="503" y="700" type="line"/>
      <point x="322" y="264" type="line"/>
      <point x="322" y="0" type="line"/>
      <point x="197" y="0" type="line"/>
      <point x="197" y="262" type="line"/>
      <point x="17" y="700" type="line"/>
      <point x="155" y="700" type="line"/>
      <point x="209" y="558" type="line" smooth="yes"/>
      <point x="232" y="497"/>
      <point x="255" y="428"/>
      <point x="261" y="395" type="curve"/>
      <point x="268" y="428"/>
      <point x="291" y="500"/>
      <point x="313" y="558" type="curve" smooth="yes"/>
      <point x="367" y="700" type="line"/>
    </contour>
  </outline>
</glyph>
<glyph name="Z" format="1">
  <advance width="469"/>
  <unicode hex="005A"/>
  <outline>
    <contour>
      <point x="419" y="0" type="line"/>
      <point x="37" y="0" type="line"/>
      <point x="37" y="111" type="line"/>
      <point x="240" y="501" type="line" smooth="yes"/>
      <point x="258" y="536"/>
      <point x="275" y="565"/>
      <point x="290" y="589" type="curve"/>
      <point x="265" y="588"/>
      <point x="236" y="587"/>
      <point x="201" y="587" type="curve" smooth="yes"/>
      <point x="54" y="587" type="line"/>
      <point x="54" y="700" type="line"/>
      <point x="419" y="700" type="line"/>
      <point x="419" y="589" type="line"/>
      <point x="218" y="199" type="line" smooth="yes"/>
      <point x="200" y="164"/>
      <point x="183" y="135"/>
      <point x="168" y="111" type="curve"/>
      <point x="193" y="112"/>
      <point x="222" y="113"/>
      <point x="257" y="113" type="curve" smooth="yes"/>
      <point x="419" y="113" type="line"/>
    </contour>
  </outline>
</glyph>
<glyph name="bracketleft" format="1">
  <advance width="365"/>
  <unicode hex="005B"/>
  <outline>
    <contour>
      <point x="312" y="-110" type="line"/>
      <point x="75" y="-110" type="line"/>
      <point x="75" y="700" type="line"/>
      <point x="312" y="700" type="line"/>
      <point x="312" y="600" type="line"/>
      <point x="198" y="600" type="line"/>
      <point x="198" y="-10" type="line"/>
      <point x="312" y="-10" type="line"/>
    </contour>
  </outline>
</glyph>
<glyph name="backslash" format="1">
  <advance width="405"/>
  <unicode hex="005C"/>
  <outline>
    <contour>
      <point x="403" y="-90" type="line"/>
      <point x="278" y="-90" type="line"/>
      <point x="2" y="790" type="line"/>
      <point x="127" y="790" type="line"/>
    </contour>
  </outline>
</glyph>
<glyph name="bracketright" format="1">
  <advance width="365"/>
  <unicode hex="005D"/>
  <outline>
    <contour>
      <point x="290" y="-110" type="line"/>
      <point x="53" y="-110" type="line"/>
      <point x="53" y="-10" type="line"/>
      <point x="167" y="-10" type="line"/>
      <point x="167" y="600" type="line"/>
      <point x="53" y="600" type="line"/>
      <point x="53" y="700" type="line"/>
      <point x="290" y="700" type="line"/>
    </contour>
  </outline>
</glyph>
<glyph name="asciicircum" format="1">
  <advance width="464"/>
  <unicode hex="005E"/>
  <outline>
    <contour>
      <point x="434" y="382" type="line"/>
      <point x="312" y="382" type="line"/>
      <point x="231" y="578" type="line"/>
      <point x="150" y="382" type="line"/>
      <point x="30" y="382" type="line"/>
      <point x="173" y="700" type="line"/>
      <point x="291" y="700" type="line"/>
    </contour>
  </outline>
</glyph>
<glyph name="underscore" format="1">
  <advance width="380"/>
  <unicode hex="005F"/>
  <outline>
    <contour>
      <point x="380" y="-177" type="line"/>
      <point x="0" y="-177" type="line"/>
      <point x="0" y="-72" type="line"/>
      <point x="380" y="-72" type="line"/>
    </contour>
  </outline>
</glyph>
<glyph name="grave" format="1">
  <advance width="400"/>
  <unicode hex="0060"/>
  <outline>
    <contour>
      <point x="307" y="595" type="line"/>
      <point x="210" y="595" type="line"/>
      <point x="65" y="755" type="line"/>
      <point x="220" y="755" type="line"/>
    </contour>
  </outline>
</glyph>
<glyph name="a" format="1">
  <advance width="444"/>
  <unicode hex="0061"/>
  <outline>
    <contour>
      <point x="394" y="0" type="line"/>
      <point x="276" y="0" type="line"/>
      <point x="276" y="36" type="line"/>
      <point x="252" y="6"/>
      <point x="216" y="-11"/>
      <point x="182" y="-11" type="curve" smooth="yes"/>
      <point x="90" y="-11"/>
      <point x="27" y="59"/>
      <point x="27" y="172" type="curve" smooth="yes"/>
      <point x="27" y="279"/>
      <point x="95" y="347"/>
      <point x="188" y="347" type="curve" smooth="yes"/>
      <point x="234" y="347"/>
      <point x="253" y="340"/>
      <point x="276" y="326" type="curve"/>
      <point x="276" y="366" type="line" smooth="yes"/>
      <point x="276" y="403"/>
      <point x="260" y="431"/>
      <point x="213" y="431" type="curve" smooth="yes"/>
      <point x="169" y="431"/>
      <point x="140" y="421"/>
      <point x="107" y="399" type="curve"/>
      <point x="59" y="485" type="line"/>
      <point x="107" y="518"/>
      <point x="157" y="536"/>
      <point x="221" y="536" type="curve" smooth="yes"/>
      <point x="343" y="536"/>
      <point x="394" y="476"/>
      <point x="394" y="361" type="curve" smooth="yes"/>
    </contour>
    <contour>
      <point x="276" y="138" type="curve"/>
      <point x="276" y="222" type="line"/>
      <point x="257" y="238"/>
      <point x="240" y="247"/>
      <point x="204" y="247" type="curve" smooth="yes"/>
      <point x="171" y="247"/>
      <point x="147" y="218"/>
      <point x="147" y="174" type="curve" smooth="yes"/>
      <point x="147" y="123"/>
      <point x="168" y="94"/>
      <point x="207" y="94" type="curve" smooth="yes"/>
      <point x="235" y="94"/>
      <point x="261" y="113"/>
    </contour>
  </outline>
</glyph>
<glyph name="c" format="1">
  <advance width="430"/>
  <unicode hex="0063"/>
  <outline>
    <contour>
      <point x="399" y="417" type="curve"/>
      <point x="304" y="353" type="line"/>
      <point x="286" y="396"/>
      <point x="265" y="424"/>
      <point x="230" y="424" type="curve" smooth="yes"/>
      <point x="177" y="424"/>
      <point x="155" y="361"/>
      <point x="155" y="263" type="curve" smooth="yes"/>
      <point x="155" y="165"/>
      <point x="179" y="101"/>
      <point x="234" y="101" type="curve" smooth="yes"/>
      <point x="268" y="101"/>
      <point x="293" y="134"/>
      <point x="310" y="178" type="curve"/>
      <point x="397" y="115" type="line"/>
      <point x="366" y="42"/>
      <point x="314" y="-11"/>
      <point x="233" y="-11" type="curve" smooth="yes"/>
      <point x="117" y="-11"/>
      <point x="35" y="84"/>
      <point x="35" y="261" type="curve" smooth="yes"/>
      <point x="35" y="438"/>
      <point x="118" y="536"/>
      <point x="232" y="536" type="curve" smooth="yes"/>
      <point x="313" y="536"/>
      <point x="367" y="495"/>
    </contour>
  </outline>
</glyph>
<glyph name="e" format="1">
  <advance width="456"/>
  <unicode hex="0065"/>
  <outline>
    <contour>
      <point x="421" y="262" type="curve" smooth="yes"/>
      <point x="421" y="248"/>
      <point x="420" y="232"/>
      <point x="419" y="218" type="curve"/>
      <point x="154" y="218" type="line"/>
      <point x="159" y="137"/>
      <point x="192" y="101"/>
      <point x="238" y="101" type="curve" smooth="yes"/>
      <point x="280" y="101"/>
      <point x="297" y="116"/>
      <point x="320" y="147" type="curve"/>
      <point x="404" y="84" type="line"/>
      <point x="365" y="20"/>
      <point x="305" y="-11"/>
      <point x="236" y="-11" type="curve" smooth="yes"/>
      <point x="106" y="-11"/>
      <point x="35" y="100"/>
      <point x="35" y="262" type="curve" smooth="yes"/>
      <point x="35" y="438"/>
      <point x="115" y="536"/>
      <point x="229" y="536" type="curve" smooth="yes"/>
      <point x="361" y="536"/>
      <point x="421" y="406"/>
    </contour>
    <contour>
      <point x="303" y="315" type="line"/>
      <point x="297" y="379"/>
      <point x="279" y="430"/>
      <point x="228" y="430" type="curve" smooth="yes"/>
      <point x="184" y="430"/>
      <point x="160" y="392"/>
      <point x="154" y="315" type="curve"/>
    </contour>
  </outline>
</glyph>
<glyph name="g" format="1">
  <advance width="464"/>
  <unicode hex="0067"/>
  <outline>
    <contour>
      <point x="409" y="54" type="line" smooth="yes"/>
      <point x="409" y="-103"/>
      <point x="362" y="-169"/>
      <point x="182" y="-193" type="curve"/>
      <point x="150" y="-105" type="line"/>
      <point x="273" y="-82"/>
      <point x="291" y="-59"/>
      <point x="291" y="36" type="curve"/>
      <point x="265" y="8"/>
      <point x="228" y="-11"/>
      <point x="190" y="-11" type="curve" smooth="yes"/>
      <point x="92" y="-11"/>
      <point x="37" y="77"/>
      <point x="37" y="262" type="curve" smooth="yes"/>
      <point x="37" y="422"/>
      <point x="85" y="536"/>
      <point x="200" y="536" type="curve" smooth="yes"/>
      <point x="235" y="536"/>
      <point x="268" y="520"/>
      <point x="291" y="496" type="curve"/>
      <point x="291" y="525" type="line"/>
      <point x="409" y="525" type="line"/>
    </contour>
    <contour>
      <point x="291" y="143" type="curve"/>
      <point x="291" y="381" type="line"/>
      <point x="275" y="404"/>
      <point x="249" y="426"/>
      <point x="216" y="426" type="curve" smooth="yes"/>
      <point x="174" y="426"/>
      <point x="157" y="388"/>
      <point x="157" y="266" type="curve" smooth="yes"/>
      <point x="157" y="151"/>
      <point x="169" y="99"/>
      <point x="218" y="99" type="curve" smooth="yes"/>
      <point x="247" y="99"/>
      <point x="277" y="122"/>
    </contour>
  </outline>
</glyph>
<glyph name="h" format="1">
  <advance width="461"/>
  <unicode hex="0068"/>
  <outline>
    <contour>
      <point x="411" y="0" type="line"/>
      <point x="293" y="0" type="line"/>
      <point x="293" y="340" type="line" smooth="yes"/>
      <point x="293" y="405"/>
      <point x="285" y="426"/>
      <point x="243" y="426" type="curve" smooth="yes"/>
      <point x="217" y="426"/>
      <point x="187" y="403"/>
      <point x="173" y="382" type="curve"/>
      <point x="173" y="0" type="line"/>
      <point x="55" y="0" type="line"/>
      <point x="55" y="670" type="line"/>
      <point x="173" y="729" type="line"/>
      <point x="173" y="489" type="line"/>
      <point x="199" y="517"/>
      <point x="233" y="536"/>
      <point x="271" y="536" type="curve" smooth="yes"/>
      <point x="383" y="536"/>
      <point x="411" y="467"/>
      <point x="411" y="344" type="curve" smooth="yes"/>
    </contour>
  </outline>
</glyph>
<glyph name="i" format="1">
  <advance width="238"/>
  <unicode hex="0069"/>
  <outline>
    <contour>
      <point x="194" y="651" type="curve" smooth="yes"/>
      <point x="194" y="610"/>
      <point x="160" y="576"/>
      <point x="119" y="576" type="curve" smooth="yes"/>
      <point x="78" y="576"/>
      <point x="44" y="610"/>
      <point x="44" y="651" type="curve" smooth="yes"/>
      <point x="44" y="692"/>
      <point x="78" y="726"/>
      <point x="119" y="726" type="curve" smooth="yes"/>
      <point x="160" y="726"/>
      <point x="194" y="692"/>
    </contour>
    <contour>
      <point x="178" y="0" type="line"/>
      <point x="60" y="0" type="line"/>
      <point x="60" y="525" type="line"/>
      <point x="178" y="525" type="line"/>
    </contour>
  </outline>
</glyph>
<glyph name="j" format="1">
  <advance width="238"/>
  <unicode hex="006A"/>
  <outline>
    <contour>
      <point x="194" y="651" type="curve" smooth="yes"/>
      <point x="194" y="610"/>
      <point x="160" y="576"/>
      <point x="119" y="576" type="curve" smooth="yes"/>
      <point x="78" y="576"/>
      <point x="44" y="610"/>
      <point x="44" y="651" type="curve" smooth="yes"/>
      <point x="44" y="692"/>
      <point x="78" y="726"/>
      <point x="119" y="726" type="curve" smooth="yes"/>
      <point x="160" y="726"/>
      <point x="194" y="692"/>
    </contour>
    <contour>
      <point x="178" y="33" type="line" smooth="yes"/>
      <point x="178" y="-122"/>
      <point x="141" y="-167"/>
      <point x="-18" y="-193" type="curve"/>
      <point x="-51" y="-103" type="line"/>
      <point x="49" y="-81"/>
      <point x="60" y="-61"/>
      <point x="60" y="28" type="curve" smooth="yes"/>
      <point x="60" y="525" type="line"/>
      <point x="178" y="525" type="line"/>
    </contour>
  </outline>
</glyph>
<glyph name="k" format="1">
  <advance width="443"/>
  <unicode hex="006B"/>
  <outline>
    <contour>
      <point x="421" y="0" type="line"/>
      <point x="298" y="0" type="line"/>
      <point x="220" y="241" type="line"/>
      <point x="173" y="164" type="line"/>
      <point x="173" y="0" type="line"/>
      <point x="55" y="0" type="line"/>
      <point x="55" y="670" type="line"/>
      <point x="173" y="729" type="line"/>
      <point x="173" y="400" type="line" smooth="yes"/>
      <point x="173" y="371"/>
      <point x="172" y="355"/>
      <point x="172" y="326" type="curve"/>
      <point x="184" y="352"/>
      <point x="200" y="381"/>
      <point x="212" y="401" type="curve" smooth="yes"/>
      <point x="285" y="525" type="line"/>
      <point x="415" y="525" type="line"/>
      <point x="301" y="354" type="line"/>
    </contour>
  </outline>
</glyph>
<glyph name="l" format="1">
  <advance width="238"/>
  <unicode hex="006C"/>
  <outline>
    <contour>
      <point x="178" y="0" type="line"/>
      <point x="60" y="0" type="line"/>
      <point x="60" y="670" type="line"/>
      <point x="178" y="729" type="line"/>
    </contour>
  </outline>
</glyph>
<glyph name="m" format="1">
  <advance width="683"/>
  <unicode hex="006D"/>
  <outline>
    <contour>
      <point x="633" y="0" type="line"/>
      <point x="515" y="0" type="line"/>
      <point x="515" y="340" type="line" smooth="yes"/>
      <point x="515" y="405"/>
      <point x="508" y="426"/>
      <point x="469" y="426" type="curve" smooth="yes"/>
      <point x="444" y="426"/>
      <point x="417" y="403"/>
      <point x="403" y="382" type="curve"/>
      <point x="403" y="0" type="line"/>
      <point x="285" y="0" type="line"/>
      <point x="285" y="340" type="line" smooth="yes"/>
      <point x="285" y="405"/>
      <point x="278" y="426"/>
      <point x="239" y="426" type="curve" smooth="yes"/>
      <point x="214" y="426"/>
      <point x="187" y="403"/>
      <point x="173" y="382" type="curve"/>
      <point x="173" y="0" type="line"/>
      <point x="55" y="0" type="line"/>
      <point x="55" y="525" type="line"/>
      <point x="173" y="525" type="line"/>
      <point x="173" y="489" type="line"/>
      <point x="199" y="517"/>
      <point x="233" y="536"/>
      <point x="267" y="536" type="curve" smooth="yes"/>
      <point x="331" y="536"/>
      <point x="363" y="513"/>
      <point x="382" y="478" type="curve"/>
      <point x="411" y="509"/>
      <point x="446" y="536"/>
      <point x="497" y="536" type="curve" smooth="yes"/>
      <point x="609" y="536"/>
      <point x="633" y="467"/>
      <point x="633" y="344" type="curve" smooth="yes"/>
    </contour>
  </outline>
</glyph>
<glyph name="o" format="1">
  <advance width="468"/>
  <unicode hex="006F"/>
  <outline>
    <contour>
      <point x="433" y="263" type="curve" smooth="yes"/>
      <point x="433" y="86"/>
      <point x="351" y="-11"/>
      <point x="234" y="-11" type="curve" smooth="yes"/>
      <point x="116" y="-11"/>
      <point x="35" y="84"/>
      <point x="35" y="261" type="curve" smooth="yes"/>
      <point x="35" y="438"/>
      <point x="117" y="536"/>
      <point x="235" y="536" type="curve" smooth="yes"/>
      <point x="352" y="536"/>
      <point x="433" y="440"/>
    </contour>
    <contour>
      <point x="313" y="261" type="curve" smooth="yes"/>
      <point x="313" y="358"/>
      <point x="289" y="424"/>
      <point x="233" y="424" type="curve" smooth="yes"/>
      <point x="176" y="424"/>
      <point x="155" y="361"/>
      <point x="155" y="263" type="curve" smooth="yes"/>
      <point x="155" y="165"/>
      <point x="178" y="101"/>
      <point x="235" y="101" type="curve" smooth="yes"/>
      <point x="291" y="101"/>
      <point x="313" y="173"/>
    </contour>
  </outline>
</glyph>
<glyph name="p" format="1">
  <advance width="464"/>
  <unicode hex="0070"/>
  <outline>
    <contour>
      <point x="427" y="263" type="curve" smooth="yes"/>
      <point x="427" y="103"/>
      <point x="379" y="-11"/>
      <point x="264" y="-11" type="curve" smooth="yes"/>
      <point x="229" y="-11"/>
      <point x="196" y="5"/>
      <point x="173" y="29" type="curve"/>
      <point x="173" y="-134" type="line"/>
      <point x="55" y="-193" type="line"/>
      <point x="55" y="525" type="line"/>
      <point x="173" y="525" type="line"/>
      <point x="173" y="489" type="line"/>
      <point x="199" y="517"/>
      <point x="236" y="536"/>
      <point x="274" y="536" type="curve" smooth="yes"/>
      <point x="372" y="536"/>
      <point x="427" y="448"/>
    </contour>
    <contour>
      <point x="307" y="259" type="curve" smooth="yes"/>
      <point x="307" y="374"/>
      <point x="295" y="426"/>
      <point x="246" y="426" type="curve" smooth="yes"/>
      <point x="217" y="426"/>
      <point x="187" y="403"/>
      <point x="173" y="382" type="curve"/>
      <point x="173" y="144" type="line"/>
      <point x="189" y="121"/>
      <point x="215" y="99"/>
      <point x="248" y="99" type="curve" smooth="yes"/>
      <point x="290" y="99"/>
      <point x="307" y="137"/>
    </contour>
  </outline>
</glyph>
<glyph name="r" format="1">
  <advance width="364"/>
  <unicode hex="0072"/>
  <outline>
    <contour>
      <point x="352" y="509" type="curve"/>
      <point x="318" y="394" type="line"/>
      <point x="298" y="410"/>
      <point x="277" y="420"/>
      <point x="249" y="420" type="curve" smooth="yes"/>
      <point x="218" y="420"/>
      <point x="193" y="404"/>
      <point x="173" y="375" type="curve"/>
      <point x="173" y="0" type="line"/>
      <point x="55" y="0" type="line"/>
      <point x="55" y="525" type="line"/>
      <point x="173" y="525" type="line"/>
      <point x="173" y="489" type="line"/>
      <point x="193" y="512"/>
      <point x="230" y="536"/>
      <point x="269" y="536" type="curve" smooth="yes"/>
      <point x="304" y="536"/>
      <point x="327" y="527"/>
    </contour>
  </outline>
</glyph>
<glyph name="s" format="1">
  <advance width="414"/>
  <unicode hex="0073"/>
  <outline>
    <contour>
      <point x="373" y="154" type="curve" smooth="yes"/>
      <point x="373" y="46"/>
      <point x="301" y="-11"/>
      <point x="201" y="-11" type="curve" smooth="yes"/>
      <point x="136" y="-11"/>
      <point x="84" y="7"/>
      <point x="35" y="46" type="curve"/>
      <point x="77" y="147" type="line"/>
      <point x="121" y="116"/>
      <point x="161" y="101"/>
      <point x="203" y="101" type="curve" smooth="yes"/>
      <point x="240" y="101"/>
      <point x="258" y="118"/>
      <point x="258" y="144" type="curve" smooth="yes"/>
      <point x="258" y="173"/>
      <point x="237" y="187"/>
      <point x="163" y="223" type="curve" smooth="yes"/>
      <point x="87" y="260"/>
      <point x="49" y="304"/>
      <point x="49" y="385" type="curve" smooth="yes"/>
      <point x="49" y="479"/>
      <point x="117" y="536"/>
      <point x="211" y="536" type="curve" smooth="yes"/>
      <point x="266" y="536"/>
      <point x="312" y="520"/>
      <point x="359" y="488" type="curve"/>
      <point x="318" y="392" type="line"/>
      <point x="273" y="416"/>
      <point x="246" y="424"/>
      <point x="208" y="424" type="curve" smooth="yes"/>
      <point x="181" y="424"/>
      <point x="164" y="409"/>
      <point x="164" y="388" type="curve" smooth="yes"/>
      <point x="164" y="365"/>
      <point x="180" y="350"/>
      <point x="252" y="316" type="curve" smooth="yes"/>
      <point x="329" y="279"/>
      <point x="373" y="236"/>
    </contour>
  </outline>
</glyph>
<glyph name="t" format="1">
  <advance width="365"/>
  <unicode hex="0074"/>
  <outline>
    <contour>
      <point x="321" y="126" type="curve"/>
      <point x="307" y="12" type="line"/>
      <point x="281" y="-2"/>
      <point x="252" y="-11"/>
      <point x="217" y="-11" type="curve" smooth="yes"/>
      <point x="132" y="-11"/>
      <point x="90" y="35"/>
      <point x="90" y="150" type="curve" smooth="yes"/>
      <point x="90" y="413" type="line"/>
      <point x="25" y="413" type="line"/>
      <point x="25" y="525" type="line"/>
      <point x="90" y="525" type="line"/>
      <point x="90" y="670" type="line"/>
      <point x="208" y="729" type="line"/>
      <point x="208" y="525" type="line"/>
      <point x="314" y="525" type="line"/>
      <point x="314" y="413" type="line"/>
      <point x="208" y="413" type="line"/>
      <point x="208" y="153" type="line" smooth="yes"/>
      <point x="208" y="114"/>
      <point x="223" y="101"/>
      <point x="251" y="101" type="curve" smooth="yes"/>
      <point x="274" y="101"/>
      <point x="298" y="109"/>
    </contour>
  </outline>
</glyph>
<glyph name="u" format="1">
  <advance width="461"/>
  <unicode hex="0075"/>
  <outline>
    <contour>
      <point x="406" y="0" type="line"/>
      <point x="288" y="0" type="line"/>
      <point x="288" y="36" type="line"/>
      <point x="262" y="8"/>
      <point x="228" y="-11"/>
      <point x="190" y="-11" type="curve" smooth="yes"/>
      <point x="78" y="-11"/>
      <point x="50" y="58"/>
      <point x="50" y="181" type="curve" smooth="yes"/>
      <point x="50" y="525" type="line"/>
      <point x="168" y="525" type="line"/>
      <point x="168" y="185" type="line" smooth="yes"/>
      <point x="168" y="120"/>
      <point x="176" y="99"/>
      <point x="218" y="99" type="curve" smooth="yes"/>
      <point x="244" y="99"/>
      <point x="274" y="122"/>
      <point x="288" y="143" type="curve"/>
      <point x="288" y="525" type="line"/>
      <point x="406" y="525" type="line"/>
    </contour>
  </outline>
</glyph>
<glyph name="v" format="1">
  <advance width="436"/>
  <unicode hex="0076"/>
  <outline>
    <contour>
      <point x="416" y="525" type="line"/>
      <point x="282" y="0" type="line"/>
      <point x="154" y="0" type="line"/>
      <point x="20" y="525" type="line"/>
      <point x="138" y="525" type="line"/>
      <point x="187" y="298" type="line" smooth="yes"/>
      <point x="196" y="255"/>
      <point x="214" y="163"/>
      <point x="219" y="135" type="curve"/>
      <point x="224" y="163"/>
      <point x="243" y="259"/>
      <point x="251" y="298" type="curve" smooth="yes"/>
      <point x="300" y="525" type="line"/>
    </contour>
  </outline>
</glyph>
<glyph name="w" format="1">
  <advance width="584"/>
  <unicode hex="0077"/>
  <outline>
    <contour>
      <point x="564" y="525" type="line"/>
      <point x="448" y="0" type="line"/>
      <point x="360" y="0" type="line"/>
      <point x="322" y="182" type="line" smooth="yes"/>
      <point x="312" y="229"/>
      <point x="296" y="311"/>
      <point x="291" y="347" type="curve"/>
      <point x="286" y="311"/>
      <point x="270" y="229"/>
      <point x="260" y="180" type="curve" smooth="yes"/>
      <point x="224" y="0" type="line"/>
      <point x="136" y="0" type="line"/>
      <point x="20" y="525" type="line"/>
      <point x="128" y="525" type="line"/>
      <point x="155" y="371" type="line" smooth="yes"/>
      <point x="164" y="321"/>
      <point x="177" y="237"/>
      <point x="182" y="201" type="curve"/>
      <point x="188" y="237"/>
      <point x="205" y="322"/>
      <point x="216" y="370" type="curve" smooth="yes"/>
      <point x="250" y="525" type="line"/>
      <point x="334" y="525" type="line"/>
      <point x="368" y="370" type="line" smooth="yes"/>
      <point x="379" y="322"/>
      <point x="396" y="237"/>
      <point x="402" y="201" type="curve"/>
      <point x="407" y="237"/>
      <point x="420" y="321"/>
      <point x="429" y="371" type="curve" smooth="yes"/>
      <point x="456" y="525" type="line"/>
    </contour>
  </outline>
</glyph>
<glyph name="x" format="1">
  <advance width="446"/>
  <unicode hex="0078"/>
  <outline>
    <contour>
      <point x="423" y="0" type="line"/>
      <point x="297" y="0" type="line"/>
      <point x="258" y="84" type="line" smooth="yes"/>
      <point x="244" y="115"/>
      <point x="233" y="145"/>
      <point x="222" y="174" type="curve"/>
      <point x="211" y="145"/>
      <point x="200" y="115"/>
      <point x="186" y="84" type="curve" smooth="yes"/>
      <point x="147" y="0" type="line"/>
      <point x="23" y="0" type="line"/>
      <point x="163" y="272" type="line"/>
      <point x="33" y="525" type="line"/>
      <point x="159" y="525" type="line"/>
      <point x="188" y="461" type="line" smooth="yes"/>
      <point x="202" y="430"/>
      <point x="214" y="399"/>
      <point x="224" y="371" type="curve"/>
      <point x="235" y="400"/>
      <point x="246" y="430"/>
      <point x="260" y="461" type="curve" smooth="yes"/>
      <point x="289" y="525" type="line"/>
      <point x="413" y="525" type="line"/>
      <point x="283" y="272" type="line"/>
    </contour>
  </outline>
</glyph>
<glyph name="y" format="1">
  <advance width="452"/>
  <unicode hex="0079"/>
  <outline>
    <contour>
      <point x="432" y="525" type="line"/>
      <point x="232" y="-185" type="line"/>
      <point x="123" y="-185" type="line"/>
      <point x="176" y="9" type="line"/>
      <point x="20" y="525" type="line"/>
      <point x="144" y="525" type="line"/>
      <point x="193" y="329" type="line" smooth="yes"/>
      <point x="206" y="277"/>
      <point x="226" y="190"/>
      <point x="231" y="160" type="curve"/>
      <point x="236" y="190"/>
      <point x="254" y="279"/>
      <point x="265" y="328" type="curve" smooth="yes"/>
      <point x="309" y="525" type="line"/>
    </contour>
  </outline>
</glyph>
<glyph name="z" format="1">
  <advance width="415"/>
  <unicode hex="007A"/>
  <outline>
    <contour>
      <point x="370" y="0" type="line"/>
      <point x="38" y="0" type="line"/>
      <point x="38" y="103" type="line"/>
      <point x="177" y="313" type="line" smooth="yes"/>
      <point x="204" y="354"/>
      <point x="231" y="393"/>
      <point x="252" y="421" type="curve"/>
      <point x="221" y="420"/>
      <point x="184" y="419"/>
      <point x="141" y="419" type="curve" smooth="yes"/>
      <point x="53" y="419" type="line"/>
      <point x="53" y="525" type="line"/>
      <point x="370" y="525" type="line"/>
      <point x="370" y="422" type="line"/>
      <point x="234" y="212" type="line" smooth="yes"/>
      <point x="207" y="170"/>
      <point x="180" y="133"/>
      <point x="158" y="104" type="curve"/>
      <point x="190" y="105"/>
      <point x="227" y="106"/>
      <point x="270" y="106" type="curve" smooth="yes"/>
      <point x="370" y="106" type="line"/>
    </contour>
  </outline>
</glyph>
<glyph name="braceleft" format="1">
  <advance width="375"/>
  <unicode hex="007B"/>
  <outline>
    <contour>
      <point x="335" y="-110" type="line"/>
      <point x="169" y="-110"/>
      <point x="107" y="-38"/>
      <point x="107" y="101" type="curve" smooth="yes"/>
      <point x="107" y="176" type="line" smooth="yes"/>
      <point x="107" y="224"/>
      <point x="86" y="245"/>
      <point x="47" y="245" type="curve" smooth="yes"/>
      <point x="25" y="245" type="line"/>
      <point x="25" y="349" type="line"/>
      <point x="47" y="349" type="line" smooth="yes"/>
      <point x="86" y="349"/>
      <point x="107" y="370"/>
      <point x="107" y="418" type="curve" smooth="yes"/>
      <point x="107" y="494" type="line" smooth="yes"/>
      <point x="107" y="633"/>
      <point x="169" y="705"/>
      <point x="335" y="705" type="curve"/>
      <point x="335" y="624" type="line"/>
      <point x="245" y="614"/>
      <point x="235" y="576"/>
      <point x="235" y="494" type="curve" smooth="yes"/>
      <point x="235" y="453" type="line" smooth="yes"/>
      <point x="235" y="345"/>
      <point x="205" y="316"/>
      <point x="140" y="297" type="curve"/>
      <point x="205" y="278"/>
      <point x="235" y="249"/>
      <point x="235" y="141" type="curve" smooth="yes"/>
      <point x="235" y="101" type="line" smooth="yes"/>
      <point x="235" y="19"/>
      <point x="245" y="-19"/>
      <point x="335" y="-29" type="curve"/>
    </contour>
  </outline>
</glyph>
<glyph name="braceright" format="1">
  <advance width="375"/>
  <unicode hex="007D"/>
  <outline>
    <contour>
      <point x="350" y="246" type="line"/>
      <point x="328" y="246" type="line" smooth="yes"/>
      <point x="289" y="246"/>
      <point x="268" y="225"/>
      <point x="268" y="177" type="curve" smooth="yes"/>
      <point x="268" y="101" type="line" smooth="yes"/>
      <point x="268" y="-38"/>
      <point x="206" y="-110"/>
      <point x="40" y="-110" type="curve"/>
      <point x="40" y="-29" type="line"/>
      <point x="130" y="-19"/>
      <point x="140" y="19"/>
      <point x="140" y="101" type="curve" smooth="yes"/>
      <point x="140" y="142" type="line" smooth="yes"/>
      <point x="140" y="250"/>
      <point x="170" y="279"/>
      <point x="235" y="298" type="curve"/>
      <point x="170" y="317"/>
      <point x="140" y="346"/>
      <point x="140" y="454" type="curve" smooth="yes"/>
      <point x="140" y="494" type="line" smooth="yes"/>
      <point x="140" y="576"/>
      <point x="130" y="614"/>
      <point x="40" y="624" type="curve"/>
      <point x="40" y="705" type="line"/>
      <point x="206" y="705"/>
      <point x="268" y="633"/>
      <point x="268" y="494" type="curve" smooth="yes"/>
      <point x="268" y="419" type="line" smooth="yes"/>
      <point x="268" y="371"/>
      <point x="289" y="350"/>
      <point x="328" y="350" type="curve" smooth="yes"/>
      <point x="350" y="350" type="line"/>
    </contour>
  </outline>
</glyph>
<glyph name="exclamdown" format="1">
  <advance width="265"/>
  <unicode hex="00A1"/>
  <outline>
    <contour>
      <point x="214" y="619" type="curve" smooth="yes"/>
      <point x="214" y="575"/>
      <point x="177" y="538"/>
      <point x="133" y="538" type="curve" smooth="yes"/>
      <point x="89" y="538"/>
      <point x="52" y="575"/>
      <point x="52" y="619" type="curve" smooth="yes"/>
      <point x="52" y="663"/>
      <point x="89" y="700"/>
      <point x="133" y="700" type="curve" smooth="yes"/>
      <point x="177" y="700"/>
      <point x="214" y="663"/>
    </contour>
    <contour>
      <point x="195" y="-11" type="line"/>
      <point x="70" y="-11" type="line"/>
      <point x="70" y="325" type="line"/>
      <point x="89" y="479" type="line"/>
      <point x="176" y="479" type="line"/>
      <point x="195" y="325" type="line"/>
    </contour>
  </outline>
</glyph>
<glyph name="cent" format="1">
  <advance width="430"/>
  <unicode hex="00A2"/>
  <outline>
    <contour>
      <point x="399" y="510" type="curve"/>
      <point x="304" y="449" type="line"/>
      <point x="286" y="492"/>
      <point x="265" y="520"/>
      <point x="230" y="520" type="curve" smooth="yes"/>
      <point x="177" y="520"/>
      <point x="155" y="454"/>
      <point x="155" y="356" type="curve" smooth="yes"/>
      <point x="155" y="258"/>
      <point x="179" y="191"/>
      <point x="234" y="191" type="curve" smooth="yes"/>
      <point x="268" y="191"/>
      <point x="293" y="224"/>
      <point x="310" y="268" type="curve"/>
      <point x="397" y="208" type="line"/>
      <point x="373" y="151"/>
      <point x="336" y="106"/>
      <point x="282" y="89" type="curve"/>
      <point x="282" y="-11" type="line"/>
      <point x="163" y="-11" type="line"/>
      <point x="163" y="95" type="line"/>
      <point x="85" y="127"/>
      <point x="35" y="215"/>
      <point x="35" y="354" type="curve" smooth="yes"/>
      <point x="35" y="493"/>
      <point x="86" y="583"/>
      <point x="163" y="615" type="curve"/>
      <point x="163" y="711" type="line"/>
      <point x="282" y="711" type="line"/>
      <point x="282" y="623" type="line"/>
      <point x="336" y="609"/>
      <point x="374" y="571"/>
    </contour>
  </outline>
</glyph>
<glyph name="sterling" format="1">
  <advance width="489"/>
  <unicode hex="00A3"/>
  <outline>
    <contour>
      <point x="466" y="636" type="curve"/>
      <point x="401" y="541" type="line"/>
      <point x="363" y="571"/>
      <point x="324" y="590"/>
      <point x="279" y="590" type="curve" smooth="yes"/>
      <point x="233" y="590"/>
      <point x="209" y="565"/>
      <point x="209" y="527" type="curve" smooth="yes"/>
      <point x="209" y="500"/>
      <point x="219" y="465"/>
      <point x="233" y="434" type="curve" smooth="yes"/>
      <point x="241" y="416"/>
      <point x="248" y="397"/>
      <point x="253" y="378" type="curve"/>
      <point x="366" y="378" type="line"/>
      <point x="366" y="275" type="line"/>
      <point x="260" y="275" type="line"/>
      <point x="254" y="213"/>
      <point x="232" y="161"/>
      <point x="199" y="109" type="curve"/>
      <point x="452" y="109" type="line"/>
      <point x="452" y="0" type="line"/>
      <point x="60" y="0" type="line"/>
      <point x="60" y="102" type="line"/>
      <point x="112" y="160"/>
      <point x="137" y="210"/>
      <point x="142" y="275" type="curve"/>
      <point x="60" y="275" type="line"/>
      <point x="60" y="378" type="line"/>
      <point x="130" y="378" type="line"/>
      <point x="125" y="392"/>
      <point x="119" y="406"/>
      <point x="112" y="420" type="curve" smooth="yes"/>
      <point x="97" y="450"/>
      <point x="85" y="493"/>
      <point x="85" y="534" type="curve" smooth="yes"/>
      <point x="85" y="643"/>
      <point x="157" y="711"/>
      <point x="271" y="711" type="curve" smooth="yes"/>
      <point x="349" y="711"/>
      <point x="409" y="683"/>
    </contour>
  </outline>
</glyph>
<glyph name="yen" format="1">
  <advance width="496"/>
  <unicode hex="00A5"/>
  <outline>
    <contour>
      <point x="481" y="700" type="line"/>
      <point x="306" y="247" type="line"/>
      <point x="306" y="219" type="line"/>
      <point x="411" y="219" type="line"/>
      <point x="411" y="112" type="line"/>
      <point x="306" y="112" type="line"/>
      <point x="306" y="0" type="line"/>
      <point x="189" y="0" type="line"/>
      <point x="189" y="112" type="line"/>
      <point x="84" y="112" type="line"/>
      <point x="84" y="219" type="line"/>
      <point x="189" y="219" type="line"/>
      <point x="189" y="245" type="line"/>
      <point x="15" y="700" type="line"/>
      <point x="153" y="700" type="line"/>
      <point x="199" y="558" type="line" smooth="yes"/>
      <point x="216" y="506"/>
      <point x="242" y="423"/>
      <point x="249" y="385" type="curve"/>
      <point x="257" y="424"/>
      <point x="282" y="505"/>
      <point x="299" y="558" type="curve" smooth="yes"/>
      <point x="345" y="700" type="line"/>
    </contour>
  </outline>
</glyph>
<glyph name="section" format="1">
  <advance width="527"/>
  <unicode hex="00A7"/>
  <outline>
    <contour>
      <point x="483" y="261" type="curve" smooth="yes"/>
      <point x="483" y="187"/>
      <point x="445" y="140"/>
      <point x="394" y="107" type="curve"/>
      <point x="426" y="78"/>
      <point x="441" y="45"/>
      <point x="441" y="-1" type="curve" smooth="yes"/>
      <point x="441" y="-98"/>
      <point x="369" y="-164"/>
      <point x="254" y="-164" type="curve" smooth="yes"/>
      <point x="189" y="-164"/>
      <point x="132" y="-142"/>
      <point x="78" y="-107" type="curve"/>
      <point x="132" y="-10" type="line"/>
      <point x="169" y="-34"/>
      <point x="212" y="-51"/>
      <point x="252" y="-51" type="curve" smooth="yes"/>
      <point x="293" y="-51"/>
      <point x="315" y="-35"/>
      <point x="315" y="-6" type="curve" smooth="yes"/>
      <point x="315" y="29"/>
      <point x="295" y="44"/>
      <point x="207" y="87" type="curve" smooth="yes"/>
      <point x="93" y="143"/>
      <point x="44" y="187"/>
      <point x="44" y="286" type="curve" smooth="yes"/>
      <point x="44" y="360"/>
      <point x="82" y="407"/>
      <point x="132" y="440" type="curve"/>
      <point x="101" y="469"/>
      <point x="86" y="502"/>
      <point x="86" y="548" type="curve" smooth="yes"/>
      <point x="86" y="645"/>
      <point x="158" y="711"/>
      <point x="273" y="711" type="curve" smooth="yes"/>
      <point x="338" y="711"/>
      <point x="395" y="689"/>
      <point x="449" y="654" type="curve"/>
      <point x="395" y="557" type="line"/>
      <point x="358" y="581"/>
      <point x="315" y="598"/>
      <point x="275" y="598" type="curve" smooth="yes"/>
      <point x="234" y="598"/>
      <point x="212" y="582"/>
      <point x="212" y="553" type="curve" smooth="yes"/>
      <point x="212" y="518"/>
      <point x="232" y="503"/>
      <point x="320" y="460" type="curve" smooth="yes"/>
      <point x="434" y="404"/>
      <point x="483" y="360"/>
    </contour>
    <contour>
      <point x="358" y="252" type="curve" smooth="yes"/>
      <point x="358" y="304"/>
      <point x="334" y="326"/>
      <point x="249" y="368" type="curve" smooth="yes"/>
      <point x="241" y="372"/>
      <point x="232" y="376"/>
      <point x="225" y="380" type="curve"/>
      <point x="188" y="359"/>
      <point x="169" y="333"/>
      <point x="169" y="295" type="curve" smooth="yes"/>
      <point x="169" y="243"/>
      <point x="193" y="221"/>
      <point x="278" y="179" type="curve" smooth="yes"/>
      <point x="286" y="175"/>
      <point x="295" y="171"/>
      <point x="302" y="167" type="curve"/>
      <point x="339" y="188"/>
      <point x="358" y="214"/>
    </contour>
  </outline>
</glyph>
<glyph name="dieresis" format="1">
  <advance width="400"/>
  <unicode hex="00A8"/>
  <outline>
    <contour>
      <point x="367" y="666" type="curve" smooth="yes"/>
      <point x="367" y="628"/>
      <point x="334" y="595"/>
      <point x="296" y="595" type="curve" smooth="yes"/>
      <point x="257" y="595"/>
      <point x="224" y="628"/>
      <point x="224" y="666" type="curve" smooth="yes"/>
      <point x="224" y="705"/>
      <point x="257" y="738"/>
      <point x="296" y="738" type="curve" smooth="yes"/>
      <point x="334" y="738"/>
      <point x="367" y="705"/>
    </contour>
    <contour>
      <point x="176" y="666" type="curve" smooth="yes"/>
      <point x="176" y="628"/>
      <point x="143" y="595"/>
      <point x="105" y="595" type="curve" smooth="yes"/>
      <point x="66" y="595"/>
      <point x="33" y="628"/>
      <point x="33" y="666" type="curve" smooth="yes"/>
      <point x="33" y="705"/>
      <point x="66" y="738"/>
      <point x="105" y="738" type="curve" smooth="yes"/>
      <point x="143" y="738"/>
      <point x="176" y="705"/>
    </contour>
  </outline>
</glyph>
<glyph name="copyright" format="1">
  <advance width="646"/>
  <unicode hex="00A9"/>
  <outline>
    <contour>
      <point x="596" y="350" type="curve" smooth="yes"/>
      <point x="596" y="131"/>
      <point x="478" y="-11"/>
      <point x="318" y="-11" type="curve" smooth="yes"/>
      <point x="158" y="-11"/>
      <point x="40" y="131"/>
      <point x="40" y="350" type="curve" smooth="yes"/>
      <point x="40" y="569"/>
      <point x="158" y="711"/>
      <point x="318" y="711" type="curve" smooth="yes"/>
      <point x="478" y="711"/>
      <point x="596" y="569"/>
    </contour>
    <contour>
      <point x="535" y="348" type="curve" smooth="yes"/>
      <point x="535" y="530"/>
      <point x="449" y="653"/>
      <point x="318" y="653" type="curve" smooth="yes"/>
      <point x="185" y="653"/>
      <point x="101" y="534"/>
      <point x="101" y="352" type="curve" smooth="yes"/>
      <point x="101" y="170"/>
      <point x="186" y="47"/>
      <point x="320" y="47" type="curve" smooth="yes"/>
      <point x="451" y="47"/>
      <point x="535" y="166"/>
    </contour>
    <contour>
      <point x="433" y="250" type="line"/>
      <point x="414" y="185"/>
      <point x="380" y="149"/>
      <point x="320" y="149" type="curve" smooth="yes"/>
      <point x="233" y="149"/>
      <point x="193" y="238"/>
      <point x="193" y="351" type="curve" smooth="yes"/>
      <point x="193" y="464"/>
      <point x="234" y="554"/>
      <point x="321" y="554" type="curve" smooth="yes"/>
      <point x="388" y="554"/>
      <point x="417" y="511"/>
      <point x="432" y="454" type="curve"/>
      <point x="366" y="433" type="line"/>
      <point x="356" y="469"/>
      <point x="346" y="484"/>
      <point x="320" y="484" type="curve" smooth="yes"/>
      <point x="282" y="484"/>
      <point x="265" y="435"/>
      <point x="265" y="352" type="curve" smooth="yes"/>
      <point x="265" y="269"/>
      <point x="283" y="219"/>
      <point x="321" y="219" type="curve" smooth="yes"/>
      <point x="345" y="219"/>
      <point x="358" y="233"/>
      <point x="372" y="275" type="curve"/>
    </contour>
  </outline>
</glyph>
<glyph name="ordfeminine" format="1">
  <advance width="396"/>
  <unicode hex="00AA"/>
  <outline>
    <contour>
      <point x="339" y="277" type="line"/>
      <point x="244" y="277" type="line"/>
      <point x="244" y="306" type="line"/>
      <point x="224" y="281"/>
      <point x="195" y="268"/>
      <point x="168" y="268" type="curve" smooth="yes"/>
      <point x="93" y="268"/>
      <point x="42" y="324"/>
      <point x="42" y="416" type="curve" smooth="yes"/>
      <point x="42" y="503"/>
      <point x="97" y="558"/>
      <point x="172" y="558" type="curve" smooth="yes"/>
      <point x="210" y="558"/>
      <point x="225" y="552"/>
      <point x="244" y="541" type="curve"/>
      <point x="244" y="573" type="line" smooth="yes"/>
      <point x="244" y="603"/>
      <point x="231" y="626"/>
      <point x="193" y="626" type="curve" smooth="yes"/>
      <point x="157" y="626"/>
      <point x="134" y="618"/>
      <point x="107" y="600" type="curve"/>
      <point x="68" y="669" type="line"/>
      <point x="107" y="696"/>
      <point x="147" y="711"/>
      <point x="199" y="711" type="curve" smooth="yes"/>
      <point x="298" y="711"/>
      <point x="339" y="662"/>
      <point x="339" y="569" type="curve" smooth="yes"/>
    </contour>
    <contour>
      <point x="244" y="388" type="curve"/>
      <point x="244" y="456" type="line"/>
      <point x="228" y="469"/>
      <point x="215" y="477"/>
      <point x="185" y="477" type="curve" smooth="yes"/>
      <point x="159" y="477"/>
      <point x="139" y="453"/>
      <point x="139" y="418" type="curve" smooth="yes"/>
      <point x="139" y="376"/>
      <point x="156" y="353"/>
      <point x="188" y="353" type="curve" smooth="yes"/>
      <point x="211" y="353"/>
      <point x="232" y="368"/>
    </contour>
  </outline>
</glyph>
<glyph name="guillemotleft" format="1">
  <advance width="510"/>
  <unicode hex="00AB"/>
  <outline>
    <contour>
      <point x="475" y="0" type="line"/>
      <point x="357" y="0" type="line"/>
      <point x="222" y="262" type="line"/>
      <point x="357" y="525" type="line"/>
      <point x="475" y="525" type="line"/>
      <point x="345" y="263" type="line"/>
    </contour>
    <contour>
      <point x="273" y="0" type="line"/>
      <point x="155" y="0" type="line"/>
      <point x="20" y="262" type="line"/>
      <point x="155" y="525" type="line"/>
      <point x="273" y="525" type="line"/>
      <point x="143" y="263" type="line"/>
    </contour>
  </outline>
</glyph>
<glyph name="degree" format="1">
  <advance width="423"/>
  <unicode hex="00B0"/>
  <outline>
    <contour>
      <point x="393" y="531" type="curve" smooth="yes"/>
      <point x="393" y="427"/>
      <point x="314" y="348"/>
      <point x="211" y="348" type="curve" smooth="yes"/>
      <point x="110" y="348"/>
      <point x="30" y="427"/>
      <point x="30" y="531" type="curve" smooth="yes"/>
      <point x="30" y="631"/>
      <point x="110" y="711"/>
      <point x="211" y="711" type="curve" smooth="yes"/>
      <point x="314" y="711"/>
      <point x="393" y="631"/>
    </contour>
    <contour>
      <point x="300" y="531" type="curve" smooth="yes"/>
      <point x="300" y="578"/>
      <point x="260" y="619"/>
      <point x="211" y="619" type="curve" smooth="yes"/>
      <point x="163" y="619"/>
      <point x="123" y="578"/>
      <point x="123" y="531" type="curve" smooth="yes"/>
      <point x="123" y="481"/>
      <point x="163" y="440"/>
      <point x="211" y="440" type="curve" smooth="yes"/>
      <point x="260" y="440"/>
      <point x="300" y="481"/>
    </contour>
  </outline>
</glyph>
<glyph name="paragraph" format="1">
  <advance width="620"/>
  <unicode hex="00B6"/>
  <outline>
    <contour>
      <point x="547" y="-185" type="line"/>
      <point x="442" y="-185" type="line"/>
      <point x="442" y="604" type="line"/>
      <point x="378" y="604" type="line"/>
      <point x="378" y="-185" type="line"/>
      <point x="273" y="-185" type="line"/>
      <point x="273" y="251" type="line"/>
      <point x="265" y="251" type="line" smooth="yes"/>
      <point x="132" y="251"/>
      <point x="42" y="329"/>
      <point x="42" y="476" type="curve" smooth="yes"/>
      <point x="42" y="627"/>
      <point x="151" y="700"/>
      <point x="270" y="700" type="curve" smooth="yes"/>
      <point x="547" y="700" type="line"/>
    </contour>
  </outline>
</glyph>
<glyph name="periodcentered" format="1">
  <advance width="246"/>
  <unicode hex="00B7"/>
  <outline>
    <contour>
      <point x="206" y="367" type="curve" smooth="yes"/>
      <point x="206" y="322"/>
      <point x="168" y="284"/>
      <point x="123" y="284" type="curve" smooth="yes"/>
      <point x="78" y="284"/>
      <point x="40" y="322"/>
      <point x="40" y="367" type="curve" smooth="yes"/>
      <point x="40" y="412"/>
      <point x="78" y="450"/>
      <point x="123" y="450" type="curve" smooth="yes"/>
      <point x="168" y="450"/>
      <point x="206" y="412"/>
    </contour>
  </outline>
</glyph>
<glyph name="cedilla" format="1">
  <advance width="400"/>
  <unicode hex="00B8"/>
  <outline>
    <contour>
      <point x="319" y="-106" type="curve" smooth="yes"/>
      <point x="319" y="-166"/>
      <point x="274" y="-193"/>
      <point x="215" y="-193" type="curve" smooth="yes"/>
      <point x="163" y="-193"/>
      <point x="132" y="-180"/>
      <point x="99" y="-157" type="curve"/>
      <point x="120" y="-119" type="line"/>
      <point x="150" y="-135"/>
      <point x="168" y="-145"/>
      <point x="194" y="-145" type="curve" smooth="yes"/>
      <point x="229" y="-145"/>
      <point x="243" y="-132"/>
      <point x="243" y="-109" type="curve" smooth="yes"/>
      <point x="243" y="-92"/>
      <point x="233" y="-81"/>
      <point x="217" y="-81" type="curve" smooth="yes"/>
      <point x="204" y="-81"/>
      <point x="196" y="-84"/>
      <point x="187" y="-90" type="curve"/>
      <point x="151" y="-76" type="line"/>
      <point x="172" y="12" type="line"/>
      <point x="229" y="12" type="line"/>
      <point x="217" y="-42" type="line"/>
      <point x="226" y="-38"/>
      <point x="237" y="-36"/>
      <point x="253" y="-36" type="curve" smooth="yes"/>
      <point x="291" y="-36"/>
      <point x="319" y="-60"/>
    </contour>
  </outline>
</glyph>
<glyph name="ordmasculine" format="1">
  <advance width="398"/>
  <unicode hex="00BA"/>
  <outline>
    <contour>
      <point x="360" y="490" type="curve" smooth="yes"/>
      <point x="360" y="346"/>
      <point x="294" y="268"/>
      <point x="199" y="268" type="curve" smooth="yes"/>
      <point x="103" y="268"/>
      <point x="38" y="345"/>
      <point x="38" y="488" type="curve" smooth="yes"/>
      <point x="38" y="632"/>
      <point x="104" y="711"/>
      <point x="200" y="711" type="curve" smooth="yes"/>
      <point x="295" y="711"/>
      <point x="360" y="633"/>
    </contour>
    <contour>
      <point x="263" y="488" type="curve" smooth="yes"/>
      <point x="263" y="567"/>
      <point x="244" y="620"/>
      <point x="198" y="620" type="curve" smooth="yes"/>
      <point x="152" y="620"/>
      <point x="135" y="569"/>
      <point x="135" y="490" type="curve" smooth="yes"/>
      <point x="135" y="410"/>
      <point x="154" y="359"/>
      <point x="200" y="359" type="curve" smooth="yes"/>
      <point x="245" y="359"/>
      <point x="263" y="417"/>
    </contour>
  </outline>
</glyph>
<glyph name="guillemotright" format="1">
  <advance width="510"/>
  <unicode hex="00BB"/>
  <outline>
    <contour>
      <point x="490" y="263" type="line"/>
      <point x="355" y="0" type="line"/>
      <point x="237" y="0" type="line"/>
      <point x="367" y="262" type="line"/>
      <point x="237" y="525" type="line"/>
      <point x="355" y="525" type="line"/>
    </contour>
    <contour>
      <point x="288" y="263" type="line"/>
      <point x="153" y="0" type="line"/>
      <point x="35" y="0" type="line"/>
      <point x="165" y="262" type="line"/>
      <point x="35" y="525" type="line"/>
      <point x="153" y="525" type="line"/>
    </contour>
  </outline>
</glyph>
<glyph name="questiondown" format="1">
  <advance width="444"/>
  <unicode hex="00BF"/>
  <outline>
    <contour>
      <point x="324" y="630" type="curve" smooth="yes"/>
      <point x="324" y="586"/>
      <point x="287" y="549"/>
      <point x="243" y="549" type="curve" smooth="yes"/>
      <point x="199" y="549"/>
      <point x="162" y="586"/>
      <point x="162" y="630" type="curve" smooth="yes"/>
      <point x="162" y="674"/>
      <point x="199" y="711"/>
      <point x="243" y="711" type="curve" smooth="yes"/>
      <point x="287" y="711"/>
      <point x="324" y="674"/>
    </contour>
    <contour>
      <point x="435" y="103" type="line"/>
      <point x="384" y="33"/>
      <point x="323" y="-11"/>
      <point x="225" y="-11" type="curve" smooth="yes"/>
      <point x="114" y="-11"/>
      <point x="29" y="48"/>
      <point x="29" y="173" type="curve" smooth="yes"/>
      <point x="29" y="254"/>
      <point x="67" y="302"/>
      <point x="123" y="347" type="curve" smooth="yes"/>
      <point x="164" y="380"/>
      <point x="184" y="419"/>
      <point x="184" y="490" type="curve"/>
      <point x="302" y="490" type="line"/>
      <point x="302" y="380"/>
      <point x="278" y="328"/>
      <point x="195" y="263" type="curve" smooth="yes"/>
      <point x="170" y="243"/>
      <point x="153" y="212"/>
      <point x="153" y="184" type="curve" smooth="yes"/>
      <point x="153" y="142"/>
      <point x="180" y="112"/>
      <point x="237" y="112" type="curve" smooth="yes"/>
      <point x="280" y="112"/>
      <point x="317" y="138"/>
      <point x="352" y="182" type="curve"/>
    </contour>
  </outline>
</glyph>
<glyph name="Aring" format="1">
  <advance width="536"/>
  <unicode hex="00C5"/>
  <outline>
    <contour>
      <point x="508" y="0" type="line"/>
      <point x="379" y="0" type="line"/>
      <point x="346" y="146" type="line"/>
      <point x="189" y="146" type="line"/>
      <point x="156" y="0" type="line"/>
      <point x="28" y="0" type="line"/>
      <point x="193" y="645" type="line"/>
      <point x="166" y="666"/>
      <point x="149" y="699"/>
      <point x="149" y="738" type="curve" smooth="yes"/>
      <point x="149" y="806"/>
      <point x="200" y="857"/>
      <point x="268" y="857" type="curve" smooth="yes"/>
      <point x="336" y="857"/>
      <point x="387" y="806"/>
      <point x="387" y="738" type="curve" smooth="yes"/>
      <point x="387" y="699"/>
      <point x="370" y="666"/>
      <point x="343" y="645" type="curve"/>
    </contour>
    <contour>
      <point x="320" y="738" type="curve" smooth="yes"/>
      <point x="320" y="768"/>
      <point x="297" y="791"/>
      <point x="268" y="791" type="curve" smooth="yes"/>
      <point x="239" y="791"/>
      <point x="216" y="768"/>
      <point x="216" y="738" type="curve" smooth="yes"/>
      <point x="216" y="708"/>
      <point x="239" y="685"/>
      <point x="268" y="685" type="curve" smooth="yes"/>
      <point x="297" y="685"/>
      <point x="320" y="708"/>
    </contour>
    <contour>
      <point x="319" y="263" type="line"/>
      <point x="300" y="346" type="line" smooth="yes"/>
      <point x="288" y="400"/>
      <point x="272" y="481"/>
      <point x="267" y="516" type="curve"/>
      <point x="262" y="480"/>
      <point x="248" y="405"/>
      <point x="235" y="348" type="curve" smooth="yes"/>
      <point x="216" y="263" type="line"/>
    </contour>
  </outline>
</glyph>
<glyph name="AE" format="1">
  <advance width="733"/>
  <unicode hex="00C6"/>
  <outline>
    <contour>
      <point x="690" y="0" type="line"/>
      <point x="337" y="0" type="line"/>
      <point x="337" y="141" type="line"/>
      <point x="190" y="141" type="line"/>
      <point x="143" y="0" type="line"/>
      <point x="17" y="0" type="line"/>
      <point x="266" y="700" type="line"/>
      <point x="681" y="700" type="line"/>
      <point x="681" y="584" type="line"/>
      <point x="456" y="584" type="line"/>
      <point x="456" y="430" type="line"/>
      <point x="604" y="430" type="line"/>
      <point x="604" y="316" type="line"/>
      <point x="456" y="316" type="line"/>
      <point x="456" y="116" type="line"/>
      <point x="690" y="116" type="line"/>
    </contour>
    <contour>
      <point x="338" y="589" type="curve"/>
      <point x="328" y="552"/>
      <point x="310" y="501"/>
      <point x="297" y="462" type="curve" smooth="yes"/>
      <point x="228" y="255" type="line"/>
      <point x="337" y="255" type="line"/>
      <point x="337" y="471" type="line" smooth="yes"/>
      <point x="337" y="502"/>
      <point x="337" y="554"/>
    </contour>
  </outline>
</glyph>
<glyph name="Ccedilla" format="1">
  <advance width="500"/>
  <unicode hex="00C7"/>
  <outline>
    <contour>
      <point x="468" y="168" type="line"/>
      <point x="436" y="57"/>
      <point x="379" y="-6"/>
      <point x="279" y="-11" type="curve"/>
      <point x="272" y="-42" type="line"/>
      <point x="281" y="-38"/>
      <point x="292" y="-36"/>
      <point x="308" y="-36" type="curve" smooth="yes"/>
      <point x="346" y="-36"/>
      <point x="374" y="-60"/>
      <point x="374" y="-106" type="curve" smooth="yes"/>
      <point x="374" y="-166"/>
      <point x="329" y="-193"/>
      <point x="270" y="-193" type="curve" smooth="yes"/>
      <point x="218" y="-193"/>
      <point x="187" y="-180"/>
      <point x="154" y="-157" type="curve"/>
      <point x="175" y="-119" type="line"/>
      <point x="205" y="-135"/>
      <point x="223" y="-145"/>
      <point x="249" y="-145" type="curve" smooth="yes"/>
      <point x="284" y="-145"/>
      <point x="298" y="-132"/>
      <point x="298" y="-109" type="curve" smooth="yes"/>
      <point x="298" y="-92"/>
      <point x="288" y="-81"/>
      <point x="272" y="-81" type="curve" smooth="yes"/>
      <point x="259" y="-81"/>
      <point x="251" y="-84"/>
      <point x="242" y="-90" type="curve"/>
      <point x="206" y="-76" type="line"/>
      <point x="223" y="-6" type="line"/>
      <point x="98" y="22"/>
      <point x="40" y="168"/>
      <point x="40" y="349" type="curve" smooth="yes"/>
      <point x="40" y="551"/>
      <point x="114" y="711"/>
      <point x="269" y="711" type="curve" smooth="yes"/>
      <point x="388" y="711"/>
      <point x="440" y="635"/>
      <point x="467" y="534" type="curve"/>
      <point x="350" y="496" type="line"/>
      <point x="332" y="560"/>
      <point x="313" y="586"/>
      <point x="267" y="586" type="curve" smooth="yes"/>
      <point x="200" y="586"/>
      <point x="168" y="500"/>
      <point x="168" y="351" type="curve" smooth="yes"/>
      <point x="168" y="202"/>
      <point x="201" y="114"/>
      <point x="269" y="114" type="curve" smooth="yes"/>
      <point x="312" y="114"/>
      <point x="334" y="138"/>
      <point x="360" y="214" type="curve"/>
    </contour>
  </outline>
</glyph>
<glyph name="Eth" format="1">
  <advance width="545"/>
  <unicode hex="00D0"/>
  <outline>
    <contour>
      <point x="505" y="351" type="curve" smooth="yes"/>
      <point x="505" y="105"/>
      <point x="399" y="0"/>
      <point x="235" y="0" type="curve" smooth="yes"/>
      <point x="80" y="0" type="line"/>
      <point x="80" y="309" type="line"/>
      <point x="30" y="309" type="line"/>
      <point x="30" y="421" type="line"/>
      <point x="80" y="421" type="line"/>
      <point x="80" y="700" type="line"/>
      <point x="238" y="700" type="line" smooth="yes"/>
      <point x="406" y="700"/>
      <point x="505" y="597"/>
    </contour>
    <contour>
      <point x="377" y="349" type="curve" smooth="yes"/>
      <point x="377" y="478"/>
      <point x="350" y="578"/>
      <point x="238" y="578" type="curve" smooth="yes"/>
      <point x="200" y="578" type="line"/>
      <point x="200" y="421" type="line"/>
      <point x="282" y="421" type="line"/>
      <point x="282" y="309" type="line"/>
      <point x="200" y="309" type="line"/>
      <point x="200" y="122" type="line"/>
      <point x="238" y="122" type="line" smooth="yes"/>
      <point x="350" y="122"/>
      <point x="377" y="220"/>
    </contour>
  </outline>
</glyph>
<glyph name="Oslash" format="1">
  <advance width="545"/>
  <unicode hex="00D8"/>
  <outline>
    <contour>
      <point x="505" y="351" type="curve" smooth="yes"/>
      <point x="505" y="149"/>
      <point x="434" y="-11"/>
      <point x="272" y="-11" type="curve" smooth="yes"/>
      <point x="243" y="-11"/>
      <point x="217" y="-6"/>
      <point x="193" y="4" type="curve"/>
      <point x="172" y="-50" type="line"/>
      <point x="63" y="-50" type="line"/>
      <point x="109" y="72" type="line"/>
      <point x="61" y="137"/>
      <point x="40" y="237"/>
      <point x="40" y="349" type="curve" smooth="yes"/>
      <point x="40" y="551"/>
      <point x="111" y="711"/>
      <point x="274" y="711" type="curve" smooth="yes"/>
      <point x="303" y="711"/>
      <point x="329" y="706"/>
      <point x="353" y="696" type="curve"/>
      <point x="375" y="750" type="line"/>
      <point x="484" y="750" type="line"/>
      <point x="437" y="627" type="line"/>
      <point x="484" y="562"/>
      <point x="505" y="463"/>
    </contour>
    <contour>
      <point x="309" y="584" type="line"/>
      <point x="298" y="590"/>
      <point x="286" y="593"/>
      <point x="272" y="593" type="curve" smooth="yes"/>
      <point x="195" y="593"/>
      <point x="163" y="504"/>
      <point x="163" y="351" type="curve" smooth="yes"/>
      <point x="163" y="302"/>
      <point x="166" y="259"/>
      <point x="174" y="224" type="curve"/>
    </contour>
    <contour>
      <point x="382" y="349" type="curve" smooth="yes"/>
      <point x="382" y="397"/>
      <point x="379" y="439"/>
      <point x="372" y="474" type="curve"/>
      <point x="237" y="115" type="line"/>
      <point x="248" y="110"/>
      <point x="260" y="107"/>
      <point x="274" y="107" type="curve" smooth="yes"/>
      <point x="350" y="107"/>
      <point x="382" y="196"/>
    </contour>
  </outline>
</glyph>
<glyph name="Thorn" format="1">
  <advance width="498"/>
  <unicode hex="00DE"/>
  <outline>
    <contour>
      <point x="474" y="367" type="curve" smooth="yes"/>
      <point x="474" y="216"/>
      <point x="365" y="141"/>
      <point x="246" y="141" type="curve" smooth="yes"/>
      <point x="190" y="141" type="line"/>
      <point x="190" y="0" type="line"/>
      <point x="65" y="0" type="line"/>
      <point x="65" y="700" type="line"/>
      <point x="190" y="700" type="line"/>
      <point x="190" y="590" type="line"/>
      <point x="251" y="590" type="line" smooth="yes"/>
      <point x="384" y="590"/>
      <point x="474" y="514"/>
    </contour>
    <contour>
      <point x="349" y="365" type="curve" smooth="yes"/>
      <point x="349" y="423"/>
      <point x="323" y="468"/>
      <point x="250" y="468" type="curve" smooth="yes"/>
      <point x="190" y="468" type="line"/>
      <point x="190" y="263" type="line"/>
      <point x="252" y="263" type="line" smooth="yes"/>
      <point x="316" y="263"/>
      <point x="349" y="301"/>
    </contour>
  </outline>
</glyph>
<glyph name="germandbls" format="1">
  <advance width="501"/>
  <unicode hex="00DF"/>
  <outline>
    <contour>
      <point x="464" y="223" type="curve" smooth="yes"/>
      <point x="464" y="79"/>
      <point x="396" y="0"/>
      <point x="246" y="0" type="curve" smooth="yes"/>
      <point x="231" y="0" type="line"/>
      <point x="231" y="108" type="line"/>
      <point x="243" y="108" type="line" smooth="yes"/>
      <point x="306" y="108"/>
      <point x="344" y="139"/>
      <point x="344" y="223" type="curve" smooth="yes"/>
      <point x="344" y="308"/>
      <point x="299" y="342"/>
      <point x="239" y="342" type="curve" smooth="yes"/>
      <point x="231" y="342" type="line"/>
      <point x="231" y="449" type="line"/>
      <point x="240" y="449" type="line" smooth="yes"/>
      <point x="290" y="449"/>
      <point x="317" y="480"/>
      <point x="317" y="538" type="curve" smooth="yes"/>
      <point x="317" y="591"/>
      <point x="289" y="616"/>
      <point x="245" y="616" type="curve" smooth="yes"/>
      <point x="196" y="616"/>
      <point x="173" y="590"/>
      <point x="173" y="536" type="curve" smooth="yes"/>
      <point x="173" y="-134" type="line"/>
      <point x="55" y="-193" type="line"/>
      <point x="55" y="531" type="line" smooth="yes"/>
      <point x="55" y="667"/>
      <point x="128" y="726"/>
      <point x="247" y="726" type="curve" smooth="yes"/>
      <point x="361" y="726"/>
      <point x="437" y="663"/>
      <point x="437" y="546" type="curve" smooth="yes"/>
      <point x="437" y="471"/>
      <point x="404" y="424"/>
      <point x="346" y="402" type="curve"/>
      <point x="409" y="378"/>
      <point x="464" y="330"/>
    </contour>
  </outline>
</glyph>
<glyph name="ae" format="1">
  <advance width="691"/>
  <unicode hex="00E6"/>
  <outline>
    <contour>
      <point x="656" y="262" type="curve" smooth="yes"/>
      <point x="656" y="248"/>
      <point x="655" y="232"/>
      <point x="654" y="218" type="curve"/>
      <point x="389" y="218" type="line"/>
      <point x="394" y="137"/>
      <point x="427" y="101"/>
      <point x="473" y="101" type="curve" smooth="yes"/>
      <point x="515" y="101"/>
      <point x="532" y="116"/>
      <point x="555" y="147" type="curve"/>
      <point x="639" y="84" type="line"/>
      <point x="600" y="20"/>
      <point x="540" y="-11"/>
      <point x="471" y="-11" type="curve" smooth="yes"/>
      <point x="408" y="-11"/>
      <point x="365" y="17"/>
      <point x="334" y="65" type="curve"/>
      <point x="288" y="12"/>
      <point x="241" y="-11"/>
      <point x="182" y="-11" type="curve" smooth="yes"/>
      <point x="90" y="-11"/>
      <point x="27" y="59"/>
      <point x="27" y="172" type="curve" smooth="yes"/>
      <point x="27" y="279"/>
      <point x="95" y="347"/>
      <point x="188" y="347" type="curve" smooth="yes"/>
      <point x="234" y="347"/>
      <point x="253" y="340"/>
      <point x="276" y="326" type="curve"/>
      <point x="276" y="366" type="line" smooth="yes"/>
      <point x="276" y="403"/>
      <point x="260" y="431"/>
      <point x="213" y="431" type="curve" smooth="yes"/>
      <point x="169" y="431"/>
      <point x="140" y="421"/>
      <point x="107" y="399" type="curve"/>
      <point x="59" y="485" type="line"/>
      <point x="107" y="518"/>
      <point x="157" y="536"/>
      <point x="221" y="536" type="curve" smooth="yes"/>
      <point x="294" y="536"/>
      <point x="323" y="509"/>
      <point x="344" y="474" type="curve"/>
      <point x="370" y="508"/>
      <point x="407" y="536"/>
      <point x="464" y="536" type="curve" smooth="yes"/>
      <point x="596" y="536"/>
      <point x="656" y="406"/>
    </contour>
    <contour>
      <point x="538" y="315" type="line"/>
      <point x="532" y="379"/>
      <point x="514" y="430"/>
      <point x="463" y="430" type="curve" smooth="yes"/>
      <point x="419" y="430"/>
      <point x="395" y="392"/>
      <point x="389" y="315" type="curve"/>
    </contour>
    <contour>
      <point x="276" y="138" type="curve"/>
      <point x="276" y="222" type="line"/>
      <point x="257" y="238"/>
      <point x="240" y="247"/>
      <point x="204" y="247" type="curve" smooth="yes"/>
      <point x="171" y="247"/>
      <point x="147" y="218"/>
      <point x="147" y="174" type="curve" smooth="yes"/>
      <point x="147" y="123"/>
      <point x="168" y="94"/>
      <point x="207" y="94" type="curve" smooth="yes"/>
      <point x="235" y="94"/>
      <point x="261" y="113"/>
    </contour>
  </outline>
</glyph>
<glyph name="ccedilla" format="1">
  <advance width="430"/>
  <unicode hex="00E7"/>
  <outline>
    <contour>
      <point x="399" y="417" type="curve"/>
      <point x="304" y="353" type="line"/>
      <point x="286" y="396"/>
      <point x="265" y="424"/>
      <point x="230" y="424" type="curve" smooth="yes"/>
      <point x="177" y="424"/>
      <point x="155" y="361"/>
      <point x="155" y="263" type="curve" smooth="yes"/>
      <point x="155" y="165"/>
      <point x="179" y="101"/>
      <point x="234" y="101" type="curve" smooth="yes"/>
      <point x="268" y="101"/>
      <point x="293" y="134"/>
      <point x="310" y="178" type="curve"/>
      <point x="397" y="115" type="line"/>
      <point x="368" y="46"/>
      <point x="320" y="-5"/>
      <point x="247" y="-10" type="curve"/>
      <point x="240" y="-42" type="line"/>
      <point x="249" y="-38"/>
      <point x="260" y="-36"/>
      <point x="276" y="-36" type="curve" smooth="yes"/>
      <point x="314" y="-36"/>
      <point x="342" y="-60"/>
      <point x="342" y="-106" type="curve" smooth="yes"/>
      <point x="342" y="-166"/>
      <point x="297" y="-193"/>
      <point x="238" y="-193" type="curve" smooth="yes"/>
      <point x="186" y="-193"/>
      <point x="155" y="-180"/>
      <point x="122" y="-157" type="curve"/>
      <point x="143" y="-119" type="line"/>
      <point x="173" y="-135"/>
      <point x="191" y="-145"/>
      <point x="217" y="-145" type="curve" smooth="yes"/>
      <point x="252" y="-145"/>
      <point x="266" y="-132"/>
      <point x="266" y="-109" type="curve" smooth="yes"/>
      <point x="266" y="-92"/>
      <point x="256" y="-81"/>
      <point x="240" y="-81" type="curve" smooth="yes"/>
      <point x="227" y="-81"/>
      <point x="219" y="-84"/>
      <point x="210" y="-90" type="curve"/>
      <point x="174" y="-76" type="line"/>
      <point x="191" y="-6" type="line"/>
      <point x="98" y="14"/>
      <point x="35" y="106"/>
      <point x="35" y="261" type="curve" smooth="yes"/>
      <point x="35" y="438"/>
      <point x="118" y="536"/>
      <point x="232" y="536" type="curve" smooth="yes"/>
      <point x="313" y="536"/>
      <point x="367" y="495"/>
    </contour>
  </outline>
</glyph>
<glyph name="eth" format="1">
  <advance width="468"/>
  <unicode hex="00F0"/>
  <outline>
    <contour>
      <point x="433" y="291" type="curve" smooth="yes"/>
      <point x="433" y="75"/>
      <point x="369" y="-11"/>
      <point x="234" y="-11" type="curve" smooth="yes"/>
      <point x="116" y="-11"/>
      <point x="35" y="74"/>
      <point x="35" y="233" type="curve" smooth="yes"/>
      <point x="35" y="402"/>
      <point x="125" y="480"/>
      <point x="219" y="480" type="curve" smooth="yes"/>
      <point x="261" y="480"/>
      <point x="293" y="467"/>
      <point x="323" y="434" type="curve"/>
      <point x="315" y="480"/>
      <point x="297" y="520"/>
      <point x="272" y="550" type="curve"/>
      <point x="223" y="503" type="line"/>
      <point x="165" y="560" type="line"/>
      <point x="207" y="601" type="line"/>
      <point x="188" y="610"/>
      <point x="166" y="616"/>
      <point x="142" y="619" type="curve"/>
      <point x="142" y="711" type="line"/>
      <point x="194" y="706"/>
      <point x="240" y="692"/>
      <point x="279" y="669" type="curve"/>
      <point x="323" y="711" type="line"/>
      <point x="380" y="653" type="line"/>
      <point x="341" y="616" type="line"/>
      <point x="402" y="545"/>
      <point x="433" y="437"/>
    </contour>
    <contour>
      <point x="313" y="233" type="curve" smooth="yes"/>
      <point x="313" y="320"/>
      <point x="286" y="368"/>
      <point x="233" y="368" type="curve" smooth="yes"/>
      <point x="179" y="368"/>
      <point x="155" y="323"/>
      <point x="155" y="235" type="curve" smooth="yes"/>
      <point x="155" y="147"/>
      <point x="181" y="101"/>
      <point x="235" y="101" type="curve" smooth="yes"/>
      <point x="288" y="101"/>
      <point x="313" y="154"/>
    </contour>
  </outline>
</glyph>
<glyph name="oslash" format="1">
  <advance width="468"/>
  <unicode hex="00F8"/>
  <outline>
    <contour>
      <point x="433" y="263" type="curve" smooth="yes"/>
      <point x="433" y="86"/>
      <point x="351" y="-11"/>
      <point x="234" y="-11" type="curve" smooth="yes"/>
      <point x="214" y="-11"/>
      <point x="195" y="-8"/>
      <point x="178" y="-3" type="curve"/>
      <point x="160" y="-50" type="line"/>
      <point x="68" y="-50" type="line"/>
      <point x="103" y="44" type="line"/>
      <point x="60" y="89"/>
      <point x="35" y="162"/>
      <point x="35" y="261" type="curve" smooth="yes"/>
      <point x="35" y="438"/>
      <point x="117" y="536"/>
      <point x="235" y="536" type="curve" smooth="yes"/>
      <point x="254" y="536"/>
      <point x="273" y="533"/>
      <point x="290" y="528" type="curve"/>
      <point x="307" y="575" type="line"/>
      <point x="399" y="575" type="line"/>
      <point x="362" y="484" type="line"/>
      <point x="407" y="438"/>
      <point x="433" y="364"/>
    </contour>
    <contour>
      <point x="253" y="429" type="line"/>
      <point x="247" y="431"/>
      <point x="240" y="432"/>
      <point x="233" y="432" type="curve" smooth="yes"/>
      <point x="173" y="432"/>
      <point x="151" y="366"/>
      <point x="151" y="263" type="curve" smooth="yes"/>
      <point x="151" y="230"/>
      <point x="153" y="201"/>
      <point x="159" y="177" type="curve"/>
    </contour>
    <contour>
      <point x="317" y="261" type="curve" smooth="yes"/>
      <point x="317" y="294"/>
      <point x="314" y="324"/>
      <point x="309" y="349" type="curve"/>
      <point x="215" y="96" type="line"/>
      <point x="221" y="94"/>
      <point x="228" y="93"/>
      <point x="235" y="93" type="curve" smooth="yes"/>
      <point x="294" y="93"/>
      <point x="317" y="169"/>
    </contour>
  </outline>
</glyph>
<glyph name="Lslash" format="1">
  <advance width="458"/>
  <unicode hex="0141"/>
  <outline>
    <contour>
      <point x="424" y="0" type="line"/>
      <point x="80" y="0" type="line"/>
      <point x="80" y="227" type="line"/>
      <point x="35" y="190" type="line"/>
      <point x="35" y="315" type="line"/>
      <point x="80" y="352" type="line"/>
      <point x="80" y="700" type="line"/>
      <point x="202" y="700" type="line"/>
      <point x="202" y="441" type="line"/>
      <point x="289" y="510" type="line"/>
      <point x="289" y="385" type="line"/>
      <point x="202" y="316" type="line"/>
      <point x="202" y="122" type="line"/>
      <point x="424" y="122" type="line"/>
    </contour>
  </outline>
</glyph>
<glyph name="lslash" format="1">
  <advance width="272"/>
  <unicode hex="0142"/>
  <outline>
    <contour>
      <point x="246" y="353" type="line"/>
      <point x="193" y="311" type="line"/>
      <point x="193" y="0" type="line"/>
      <point x="79" y="0" type="line"/>
      <point x="79" y="228" type="line"/>
      <point x="26" y="185" type="line"/>
      <point x="26" y="310" type="line"/>
      <point x="79" y="352" type="line"/>
      <point x="79" y="670" type="line"/>
      <point x="193" y="729" type="line"/>
      <point x="193" y="435" type="line"/>
      <point x="246" y="478" type="line"/>
    </contour>
  </outline>
</glyph>
<glyph name="OE" format="1">
  <advance width="781"/>
  <unicode hex="0152"/>
  <outline>
    <contour>
      <point x="738" y="0" type="line"/>
      <point x="403" y="0" type="line"/>
      <point x="403" y="65" type="line"/>
      <point x="373" y="16"/>
      <point x="332" y="-11"/>
      <point x="267" y="-11" type="curve" smooth="yes"/>
      <point x="111" y="-11"/>
      <point x="40" y="148"/>
      <point x="40" y="349" type="curve" smooth="yes"/>
      <point x="40" y="551"/>
      <point x="112" y="711"/>
      <point x="269" y="711" type="curve" smooth="yes"/>
      <point x="336" y="711"/>
      <point x="374" y="682"/>
      <point x="403" y="635" type="curve"/>
      <point x="403" y="700" type="line"/>
      <point x="729" y="700" type="line"/>
      <point x="729" y="580" type="line"/>
      <point x="495" y="580" type="line"/>
      <point x="495" y="432" type="line"/>
      <point x="652" y="432" type="line"/>
      <point x="652" y="314" type="line"/>
      <point x="495" y="314" type="line"/>
      <point x="495" y="120" type="line"/>
      <point x="738" y="120" type="line"/>
    </contour>
    <contour>
      <point x="377" y="349" type="curve" smooth="yes"/>
      <point x="377" y="498"/>
      <point x="346" y="586"/>
      <point x="272" y="586" type="curve" smooth="yes"/>
      <point x="197" y="586"/>
      <point x="168" y="500"/>
      <point x="168" y="351" type="curve" smooth="yes"/>
      <point x="168" y="202"/>
      <point x="199" y="114"/>
      <point x="274" y="114" type="curve" smooth="yes"/>
      <point x="348" y="114"/>
      <point x="377" y="200"/>
    </contour>
  </outline>
</glyph>
<glyph name="oe" format="1">
  <advance width="728"/>
  <unicode hex="0153"/>
  <outline>
    <contour>
      <point x="693" y="262" type="curve" smooth="yes"/>
      <point x="693" y="248"/>
      <point x="692" y="232"/>
      <point x="691" y="218" type="curve"/>
      <point x="426" y="218" type="line"/>
      <point x="431" y="137"/>
      <point x="464" y="101"/>
      <point x="510" y="101" type="curve" smooth="yes"/>
      <point x="552" y="101"/>
      <point x="569" y="116"/>
      <point x="592" y="147" type="curve"/>
      <point x="676" y="84" type="line"/>
      <point x="637" y="20"/>
      <point x="577" y="-11"/>
      <point x="508" y="-11" type="curve" smooth="yes"/>
      <point x="439" y="-11"/>
      <point x="397" y="25"/>
      <point x="370" y="71" type="curve"/>
      <point x="344" y="25"/>
      <point x="300" y="-11"/>
      <point x="234" y="-11" type="curve" smooth="yes"/>
      <point x="116" y="-11"/>
      <point x="35" y="84"/>
      <point x="35" y="261" type="curve" smooth="yes"/>
      <point x="35" y="438"/>
      <point x="117" y="536"/>
      <point x="235" y="536" type="curve" smooth="yes"/>
      <point x="296" y="536"/>
      <point x="346" y="506"/>
      <point x="370" y="456" type="curve"/>
      <point x="398" y="505"/>
      <point x="441" y="536"/>
      <point x="501" y="536" type="curve" smooth="yes"/>
      <point x="633" y="536"/>
      <point x="693" y="406"/>
    </contour>
    <contour>
      <point x="575" y="315" type="line"/>
      <point x="569" y="379"/>
      <point x="551" y="430"/>
      <point x="500" y="430" type="curve" smooth="yes"/>
      <point x="456" y="430"/>
      <point x="432" y="392"/>
      <point x="426" y="315" type="curve"/>
    </contour>
    <contour>
      <point x="313" y="261" type="curve" smooth="yes"/>
      <point x="313" y="358"/>
      <point x="289" y="424"/>
      <point x="233" y="424" type="curve" smooth="yes"/>
      <point x="176" y="424"/>
      <point x="155" y="361"/>
      <point x="155" y="263" type="curve" smooth="yes"/>
      <point x="155" y="165"/>
      <point x="178" y="101"/>
      <point x="235" y="101" type="curve" smooth="yes"/>
      <point x="291" y="101"/>
      <point x="313" y="173"/>
    </contour>
  </outline>
</glyph>
<glyph name="florin" format="1">
  <advance width="363"/>
  <unicode hex="0192"/>
  <outline>
    <contour>
      <point x="333" y="593" type="line"/>
      <point x="311" y="600"/>
      <point x="289" y="604"/>
      <point x="266" y="604" type="curve" smooth="yes"/>
      <point x="233" y="604"/>
      <point x="217" y="591"/>
      <point x="217" y="553" type="curve" smooth="yes"/>
      <point x="217" y="522" type="line"/>
      <point x="311" y="522" type="line"/>
      <point x="311" y="413" type="line"/>
      <point x="217" y="413" type="line"/>
      <point x="217" y="-137" type="line"/>
      <point x="99" y="-196" type="line"/>
      <point x="99" y="413" type="line"/>
      <point x="46" y="413" type="line"/>
      <point x="46" y="522" type="line"/>
      <point x="99" y="522" type="line"/>
      <point x="99" y="570" type="line" smooth="yes"/>
      <point x="99" y="667"/>
      <point x="158" y="708"/>
      <point x="234" y="708" type="curve" smooth="yes"/>
      <point x="275" y="708"/>
      <point x="305" y="702"/>
      <point x="333" y="693" type="curve"/>
    </contour>
  </outline>
</glyph>
<glyph name="circumflex" format="1">
  <advance width="400"/>
  <unicode hex="02C6"/>
  <outline>
    <contour>
      <point x="364" y="595" type="line"/>
      <point x="276" y="595" type="line"/>
      <point x="199" y="668" type="line"/>
      <point x="122" y="595" type="line"/>
      <point x="36" y="595" type="line"/>
      <point x="145" y="755" type="line"/>
      <point x="255" y="755" type="line"/>
    </contour>
  </outline>
</glyph>
<glyph name="caron" format="1">
  <advance width="400"/>
  <unicode hex="02C7"/>
  <outline>
    <contour>
      <point x="364" y="755" type="line"/>
      <point x="255" y="595" type="line"/>
      <point x="145" y="595" type="line"/>
      <point x="36" y="755" type="line"/>
      <point x="124" y="755" type="line"/>
      <point x="201" y="682" type="line"/>
      <point x="278" y="755" type="line"/>
    </contour>
  </outline>
</glyph>
<glyph name="breve" format="1">
  <advance width="400"/>
  <unicode hex="02D8"/>
  <outline>
    <contour>
      <point x="360" y="755" type="line"/>
      <point x="347" y="651"/>
      <point x="296" y="595"/>
      <point x="200" y="595" type="curve" smooth="yes"/>
      <point x="106" y="595"/>
      <point x="55" y="651"/>
      <point x="42" y="755" type="curve"/>
      <point x="121" y="755" type="line"/>
      <point x="133" y="708"/>
      <point x="151" y="685"/>
      <point x="203" y="685" type="curve" smooth="yes"/>
      <point x="253" y="685"/>
      <point x="273" y="708"/>
      <point x="285" y="755" type="curve"/>
    </contour>
  </outline>
</glyph>
<glyph name="dotaccent" format="1">
  <advance width="400"/>
  <unicode hex="02D9"/>
  <outline>
    <contour>
      <point x="271" y="666" type="curve" smooth="yes"/>
      <point x="271" y="628"/>
      <point x="238" y="595"/>
      <point x="200" y="595" type="curve" smooth="yes"/>
      <point x="161" y="595"/>
      <point x="128" y="628"/>
      <point x="128" y="666" type="curve" smooth="yes"/>
      <point x="128" y="705"/>
      <point x="161" y="738"/>
      <point x="200" y="738" type="curve" smooth="yes"/>
      <point x="238" y="738"/>
      <point x="271" y="705"/>
    </contour>
  </outline>
</glyph>
<glyph name="ring" format="1">
  <advance width="400"/>
  <unicode hex="02DA"/>
  <outline>
    <contour>
      <point x="319" y="713" type="curve" smooth="yes"/>
      <point x="319" y="645"/>
      <point x="268" y="595"/>
      <point x="200" y="595" type="curve" smooth="yes"/>
      <point x="132" y="595"/>
      <point x="81" y="645"/>
      <point x="81" y="713" type="curve" smooth="yes"/>
      <point x="81" y="781"/>
      <point x="132" y="832"/>
      <point x="200" y="832" type="curve" smooth="yes"/>
      <point x="268" y="832"/>
      <point x="319" y="781"/>
    </contour>
    <contour>
      <point x="252" y="713" type="curve" smooth="yes"/>
      <point x="252" y="743"/>
      <point x="229" y="766"/>
      <point x="200" y="766" type="curve" smooth="yes"/>
      <point x="171" y="766"/>
      <point x="148" y="743"/>
      <point x="148" y="713" type="curve" smooth="yes"/>
      <point x="148" y="683"/>
      <point x="171" y="660"/>
      <point x="200" y="660" type="curve" smooth="yes"/>
      <point x="229" y="660"/>
      <point x="252" y="683"/>
    </contour>
  </outline>
</glyph>
<glyph name="ogonek" format="1">
  <advance width="400"/>
  <unicode hex="02DB"/>
  <outline>
    <contour>
      <point x="309" y="-152" type="line"/>
      <point x="274" y="-177"/>
      <point x="240" y="-193"/>
      <point x="192" y="-193" type="curve" smooth="yes"/>
      <point x="138" y="-193"/>
      <point x="102" y="-164"/>
      <point x="102" y="-110" type="curve" smooth="yes"/>
      <point x="102" y="-66"/>
      <point x="137" y="-31"/>
      <point x="183" y="0" type="curve"/>
      <point x="243" y="0" type="line"/>
      <point x="195" y="-51"/>
      <point x="182" y="-70"/>
      <point x="182" y="-99" type="curve" smooth="yes"/>
      <point x="182" y="-119"/>
      <point x="192" y="-134"/>
      <point x="213" y="-134" type="curve" smooth="yes"/>
      <point x="238" y="-134"/>
      <point x="255" y="-129"/>
      <point x="284" y="-113" type="curve"/>
    </contour>
  </outline>
</glyph>
<glyph name="tilde" format="1">
  <advance width="400"/>
  <unicode hex="02DC"/>
  <outline>
    <contour>
      <point x="367" y="722" type="line"/>
      <point x="367" y="642"/>
      <point x="327" y="592"/>
      <point x="269" y="592" type="curve" smooth="yes"/>
      <point x="233" y="592"/>
      <point x="217" y="600"/>
      <point x="183" y="620" type="curve" smooth="yes"/>
      <point x="157" y="636"/>
      <point x="150" y="638"/>
      <point x="138" y="638" type="curve" smooth="yes"/>
      <point x="122" y="638"/>
      <point x="115" y="627"/>
      <point x="110" y="595" type="curve"/>
      <point x="33" y="595" type="line"/>
      <point x="33" y="675"/>
      <point x="73" y="725"/>
      <point x="131" y="725" type="curve" smooth="yes"/>
      <point x="167" y="725"/>
      <point x="183" y="717"/>
      <point x="217" y="697" type="curve" smooth="yes"/>
      <point x="243" y="681"/>
      <point x="250" y="679"/>
      <point x="262" y="679" type="curve" smooth="yes"/>
      <point x="278" y="679"/>
      <point x="285" y="690"/>
      <point x="290" y="722" type="curve"/>
    </contour>
  </outline>
</glyph>
<glyph name="hungarumlaut" format="1">
  <advance width="400"/>
  <unicode hex="02DD"/>
  <outline>
    <contour>
      <point x="436" y="755" type="line"/>
      <point x="291" y="595" type="line"/>
      <point x="197" y="595" type="line"/>
      <point x="289" y="755" type="line"/>
    </contour>
    <contour>
      <point x="246" y="755" type="line"/>
      <point x="101" y="595" type="line"/>
      <point x="7" y="595" type="line"/>
      <point x="99" y="755" type="line"/>
    </contour>
  </outline>
</glyph>
<glyph name="endash" format="1">
  <advance width="420"/>
  <unicode hex="2013"/>
  <outline>
    <contour>
      <point x="375" y="299" type="line"/>
      <point x="45" y="299" type="line"/>
      <point x="45" y="427" type="line"/>
      <point x="375" y="427" type="line"/>
    </contour>
  </outline>
</glyph>
<glyph name="quoteleft" format="1">
  <advance width="260"/>
  <unicode hex="2018"/>
  <unicode hex="02BB"/>
  <outline>
    <contour>
      <point x="198" y="700" type="line"/>
      <point x="185" y="447" type="line"/>
      <point x="45" y="447" type="line"/>
      <point x="117" y="700" type="line"/>
    </contour>
  </outline>
</glyph>
<glyph name="quoteright" format="1">
  <advance width="260"/>
  <unicode hex="2019"/>
  <unicode hex="02BC"/>
  <outline>
    <contour>
      <point x="215" y="700" type="line"/>
      <point x="143" y="447" type="line"/>
      <point x="62" y="447" type="line"/>
      <point x="75" y="700" type="line"/>
    </contour>
  </outline>
</glyph>
<glyph name="quotesinglbase" format="1">
  <advance width="260"/>
  <unicode hex="201A"/>
  <outline>
    <contour>
      <point x="215" y="147" type="line"/>
      <point x="143" y="-106" type="line"/>
      <point x="62" y="-106" type="line"/>
      <point x="75" y="147" type="line"/>
    </contour>
  </outline>
</glyph>
<glyph name="quotedblleft" format="1">
  <advance width="485"/>
  <unicode hex="201C"/>
  <outline>
    <contour>
      <point x="423" y="700" type="line"/>
      <point x="410" y="447" type="line"/>
      <point x="270" y="447" type="line"/>
      <point x="342" y="700" type="line"/>
    </contour>
    <contour>
      <point x="198" y="700" type="line"/>
      <point x="185" y="447" type="line"/>
      <point x="45" y="447" type="line"/>
      <point x="117" y="700" type="line"/>
    </contour>
  </outline>
</glyph>
<glyph name="quotedblright" format="1">
  <advance width="485"/>
  <unicode hex="201D"/>
  <outline>
    <contour>
      <point x="440" y="700" type="line"/>
      <point x="368" y="447" type="line"/>
      <point x="287" y="447" type="line"/>
      <point x="300" y="700" type="line"/>
    </contour>
    <contour>
      <point x="215" y="700" type="line"/>
      <point x="143" y="447" type="line"/>
      <point x="62" y="447" type="line"/>
      <point x="75" y="700" type="line"/>
    </contour>
  </outline>
</glyph>
<glyph name="quotedblbase" format="1">
  <advance width="485"/>
  <unicode hex="201E"/>
  <outline>
    <contour>
      <point x="440" y="147" type="line"/>
      <point x="368" y="-106" type="line"/>
      <point x="287" y="-106" type="line"/>
      <point x="300" y="147" type="line"/>
    </contour>
    <contour>
      <point x="215" y="147" type="line"/>
      <point x="143" y="-106" type="line"/>
      <point x="62" y="-106" type="line"/>
      <point x="75" y="147" type="line"/>
    </contour>
  </outline>
</glyph>
<glyph name="dagger" format="1">
  <advance width="464"/>
  <unicode hex="2020"/>
  <outline>
    <contour>
      <point x="432" y="368" type="line"/>
      <point x="287" y="368" type="line"/>
      <point x="287" y="-100" type="line"/>
      <point x="167" y="-100" type="line"/>
      <point x="167" y="368" type="line"/>
      <point x="32" y="368" type="line"/>
      <point x="32" y="489" type="line"/>
      <point x="167" y="489" type="line"/>
      <point x="167" y="700" type="line"/>
      <point x="287" y="700" type="line"/>
      <point x="287" y="489" type="line"/>
      <point x="432" y="489" type="line"/>
    </contour>
  </outline>
</glyph>
<glyph name="daggerdbl" format="1">
  <advance width="464"/>
  <unicode hex="2021"/>
  <outline>
    <contour>
      <point x="432" y="110" type="line"/>
      <point x="287" y="110" type="line"/>
      <point x="287" y="-100" type="line"/>
      <point x="167" y="-100" type="line"/>
      <point x="167" y="110" type="line"/>
      <point x="32" y="110" type="line"/>
      <point x="32" y="231" type="line"/>
      <point x="167" y="231" type="line"/>
      <point x="167" y="368" type="line"/>
      <point x="32" y="368" type="line"/>
      <point x="32" y="489" type="line"/>
      <point x="167" y="489" type="line"/>
      <point x="167" y="700" type="line"/>
      <point x="287" y="700" type="line"/>
      <point x="287" y="489" type="line"/>
      <point x="432" y="489" type="line"/>
      <point x="432" y="368" type="line"/>
      <point x="287" y="368" type="line"/>
      <point x="287" y="231" type="line"/>
      <point x="432" y="231" type="line"/>
    </contour>
  </outline>
</glyph>
<glyph name="ellipsis" format="1">
  <advance width="738"/>
  <unicode hex="2026"/>
  <outline>
    <contour>
      <point x="698" y="72" type="curve" smooth="yes"/>
      <point x="698" y="27"/>
      <point x="660" y="-11"/>
      <point x="615" y="-11" type="curve" smooth="yes"/>
      <point x="570" y="-11"/>
      <point x="532" y="27"/>
      <point x="532" y="72" type="curve" smooth="yes"/>
      <point x="532" y="117"/>
      <point x="570" y="155"/>
      <point x="615" y="155" type="curve" smooth="yes"/>
      <point x="660" y="155"/>
      <point x="698" y="117"/>
    </contour>
    <contour>
      <point x="452" y="72" type="curve" smooth="yes"/>
      <point x="452" y="27"/>
      <point x="414" y="-11"/>
      <point x="369" y="-11" type="curve" smooth="yes"/>
      <point x="324" y="-11"/>
      <point x="286" y="27"/>
      <point x="286" y="72" type="curve" smooth="yes"/>
      <point x="286" y="117"/>
      <point x="324" y="155"/>
      <point x="369" y="155" type="curve" smooth="yes"/>
      <point x="414" y="155"/>
      <point x="452" y="117"/>
    </contour>
    <contour>
      <point x="206" y="72" type="curve" smooth="yes"/>
      <point x="206" y="27"/>
      <point x="168" y="-11"/>
      <point x="123" y="-11" type="curve" smooth="yes"/>
      <point x="78" y="-11"/>
      <point x="40" y="27"/>
      <point x="40" y="72" type="curve" smooth="yes"/>
      <point x="40" y="117"/>
      <point x="78" y="155"/>
      <point x="123" y="155" type="curve" smooth="yes"/>
      <point x="168" y="155"/>
      <point x="206" y="117"/>
    </contour>
  </outline>
</glyph>
<glyph name="guilsinglleft" format="1">
  <advance width="308"/>
  <unicode hex="2039"/>
  <outline>
    <contour>
      <point x="273" y="0" type="line"/>
      <point x="155" y="0" type="line"/>
      <point x="20" y="262" type="line"/>
      <point x="155" y="525" type="line"/>
      <point x="273" y="525" type="line"/>
      <point x="143" y="263" type="line"/>
    </contour>
  </outline>
</glyph>
<glyph name="guilsinglright" format="1">
  <advance width="308"/>
  <unicode hex="203A"/>
  <outline>
    <contour>
      <point x="288" y="263" type="line"/>
      <point x="153" y="0" type="line"/>
      <point x="35" y="0" type="line"/>
      <point x="165" y="262" type="line"/>
      <point x="35" y="525" type="line"/>
      <point x="153" y="525" type="line"/>
    </contour>
  </outline>
</glyph>
<glyph name="fraction" format="1">
  <advance width="420"/>
  <unicode hex="2044"/>
  <outline>
    <contour>
      <point x="472" y="700" type="line"/>
      <point x="83" y="0" type="line"/>
      <point x="-52" y="0" type="line"/>
      <point x="337" y="700" type="line"/>
    </contour>
  </outline>
</glyph>
<glyph name="Euro" format="1">
  <advance width="500"/>
  <unicode hex="20AC"/>
  <outline>
    <contour>
      <point x="164" y="373" type="line"/>
      <point x="164" y="366"/>
      <point x="164" y="358"/>
      <point x="164" y="351" type="curve" smooth="yes"/>
      <point x="164" y="342"/>
      <point x="164" y="334"/>
      <point x="164" y="326" type="curve"/>
      <point x="345" y="326" type="line"/>
      <point x="345" y="239" type="line"/>
      <point x="172" y="239" type="line"/>
      <point x="186" y="151"/>
      <point x="219" y="109"/>
      <point x="269" y="109" type="curve" smooth="yes"/>
      <point x="312" y="109"/>
      <point x="334" y="130"/>
      <point x="360" y="209" type="curve"/>
      <point x="468" y="163" type="line"/>
      <point x="435" y="48"/>
      <point x="371" y="-11"/>
      <point x="262" y="-11" type="curve" smooth="yes"/>
      <point x="113" y="-11"/>
      <point x="40" y="148"/>
      <point x="40" y="349" type="curve" smooth="yes"/>
      <point x="40" y="551"/>
      <point x="114" y="711"/>
      <point x="269" y="711" type="curve" smooth="yes"/>
      <point x="388" y="711"/>
      <point x="438" y="643"/>
      <point x="467" y="539" type="curve"/>
      <point x="350" y="501" type="line"/>
      <point x="333" y="559"/>
      <point x="310" y="591"/>
      <point x="262" y="591" type="curve" smooth="yes"/>
      <point x="214" y="591"/>
      <point x="183" y="549"/>
      <point x="171" y="460" type="curve"/>
      <point x="345" y="460" type="line"/>
      <point x="345" y="373" type="line"/>
    </contour>
  </outline>
</glyph>
<glyph name="uni2117" format="1">
  <advance width="646"/>
  <unicode hex="2117"/>
  <outline>
    <contour>
      <point x="596" y="350" type="curve" smooth="yes"/>
      <point x="596" y="131"/>
      <point x="478" y="-11"/>
      <point x="318" y="-11" type="curve" smooth="yes"/>
      <point x="158" y="-11"/>
      <point x="40" y="131"/>
      <point x="40" y="350" type="curve" smooth="yes"/>
      <point x="40" y="569"/>
      <point x="158" y="711"/>
      <point x="318" y="711" type="curve" smooth="yes"/>
      <point x="478" y="711"/>
      <point x="596" y="569"/>
    </contour>
    <contour>
      <point x="535" y="348" type="curve" smooth="yes"/>
      <point x="535" y="530"/>
      <point x="449" y="653"/>
      <point x="318" y="653" type="curve" smooth="yes"/>
      <point x="185" y="653"/>
      <point x="101" y="534"/>
      <point x="101" y="352" type="curve" smooth="yes"/>
      <point x="101" y="170"/>
      <point x="186" y="47"/>
      <point x="320" y="47" type="curve" smooth="yes"/>
      <point x="451" y="47"/>
      <point x="535" y="166"/>
    </contour>
    <contour>
      <point x="452" y="421" type="curve" smooth="yes"/>
      <point x="452" y="337"/>
      <point x="391" y="295"/>
      <point x="325" y="295" type="curve" smooth="yes"/>
      <point x="293" y="295" type="line"/>
      <point x="293" y="154" type="line"/>
      <point x="223" y="154" type="line"/>
      <point x="223" y="546" type="line"/>
      <point x="328" y="546" type="line" smooth="yes"/>
      <point x="402" y="546"/>
      <point x="452" y="504"/>
    </contour>
    <contour>
      <point x="382" y="420" type="curve" smooth="yes"/>
      <point x="382" y="453"/>
      <point x="365" y="478"/>
      <point x="324" y="478" type="curve" smooth="yes"/>
      <point x="293" y="478" type="line"/>
      <point x="293" y="363" type="line"/>
      <point x="328" y="363" type="line" smooth="yes"/>
      <point x="364" y="363"/>
      <point x="382" y="384"/>
    </contour>
  </outline>
</glyph>
<glyph name="trademark" format="1">
  <advance width="620"/>
  <unicode hex="2122"/>
  <outline>
    <contour>
      <point x="243" y="633" type="line"/>
      <point x="162" y="633" type="line"/>
      <point x="162" y="308" type="line"/>
      <point x="92" y="308" type="line"/>
      <point x="92" y="633" type="line"/>
      <point x="11" y="633" type="line"/>
      <point x="11" y="700" type="line"/>
      <point x="243" y="700" type="line"/>
    </contour>
    <contour>
      <point x="572" y="308" type="line"/>
      <point x="509" y="308" type="line"/>
      <point x="509" y="433" type="line" smooth="yes"/>
      <point x="509" y="472"/>
      <point x="509" y="508"/>
      <point x="510" y="535" type="curve"/>
      <point x="502" y="508"/>
      <point x="490" y="473"/>
      <point x="477" y="435" type="curve" smooth="yes"/>
      <point x="430" y="298" type="line"/>
      <point x="383" y="435" type="line" smooth="yes"/>
      <point x="370" y="474"/>
      <point x="358" y="509"/>
      <point x="350" y="536" type="curve"/>
      <point x="351" y="509"/>
      <point x="351" y="473"/>
      <point x="351" y="433" type="curve" smooth="yes"/>
      <point x="351" y="308" type="line"/>
      <point x="287" y="308" type="line"/>
      <point x="287" y="700" type="line"/>
      <point x="358" y="700" type="line"/>
      <point x="406" y="553" type="line" smooth="yes"/>
      <point x="417" y="520"/>
      <point x="425" y="493"/>
      <point x="431" y="469" type="curve"/>
      <point x="437" y="493"/>
      <point x="446" y="521"/>
      <point x="456" y="553" type="curve" smooth="yes"/>
      <point x="503" y="700" type="line"/>
      <point x="572" y="700" type="line"/>
    </contour>
  </outline>
</glyph>
<glyph name="arrowup" format="1">
  <advance width="408"/>
  <unicode hex="2191"/>
  <outline>
    <contour>
      <point x="353" y="490" type="curve" smooth="yes"/>
      <point x="345" y="478"/>
      <point x="336" y="475"/>
      <point x="320" y="480" type="curve" smooth="yes"/>
      <point x="263" y="496" type="line"/>
      <point x="263" y="0" type="line"/>
      <point x="145" y="0" type="line"/>
      <point x="145" y="496" type="line"/>
      <point x="90" y="480" type="line" smooth="yes"/>
      <point x="73" y="475"/>
      <point x="63" y="479"/>
      <point x="55" y="490" type="curve" smooth="yes"/>
      <point x="51" y="496"/>
      <point x="50" y="507"/>
      <point x="57" y="519" type="curve"/>
      <point x="205" y="715" type="line"/>
      <point x="350" y="519" type="line" smooth="yes"/>
      <point x="359" y="507"/>
      <point x="357" y="496"/>
    </contour>
  </outline>
</glyph>
<glyph name="radical" format="1">
  <advance width="524"/>
  <unicode hex="221A"/>
  <outline>
    <contour>
      <point x="509" y="700" type="line"/>
      <point x="278" y="0" type="line"/>
      <point x="145" y="0" type="line"/>
      <point x="22" y="340" type="line"/>
      <point x="149" y="340" type="line"/>
      <point x="178" y="242" type="line" smooth="yes"/>
      <point x="190" y="201"/>
      <point x="205" y="149"/>
      <point x="211" y="116" type="curve"/>
      <point x="220" y="153"/>
      <point x="236" y="206"/>
      <point x="248" y="246" type="curve" smooth="yes"/>
      <point x="386" y="700" type="line"/>
    </contour>
  </outline>
</glyph>
<glyph name="fi" format="1">
  <advance width="548"/>
  <unicode hex="FB01"/>
  <outline>
    <contour>
      <point x="504" y="651" type="curve" smooth="yes"/>
      <point x="504" y="610"/>
      <point x="470" y="576"/>
      <point x="429" y="576" type="curve" smooth="yes"/>
      <point x="388" y="576"/>
      <point x="354" y="610"/>
      <point x="354" y="651" type="curve" smooth="yes"/>
      <point x="354" y="692"/>
      <point x="388" y="726"/>
      <point x="429" y="726" type="curve" smooth="yes"/>
      <point x="470" y="726"/>
      <point x="504" y="692"/>
    </contour>
    <contour>
      <point x="300" y="609" type="line"/>
      <point x="285" y="616"/>
      <point x="270" y="619"/>
      <point x="247" y="619" type="curve" smooth="yes"/>
      <point x="214" y="619"/>
      <point x="201" y="606"/>
      <point x="201" y="568" type="curve" smooth="yes"/>
      <point x="201" y="525" type="line"/>
      <point x="285" y="525" type="line"/>
      <point x="285" y="413" type="line"/>
      <point x="201" y="413" type="line"/>
      <point x="201" y="0" type="line"/>
      <point x="83" y="0" type="line"/>
      <point x="83" y="413" type="line"/>
      <point x="30" y="413" type="line"/>
      <point x="30" y="525" type="line"/>
      <point x="83" y="525" type="line"/>
      <point x="83" y="588" type="line" smooth="yes"/>
      <point x="83" y="685"/>
      <point x="140" y="726"/>
      <point x="211" y="726" type="curve" smooth="yes"/>
      <point x="252" y="726"/>
      <point x="277" y="721"/>
      <point x="300" y="711" type="curve"/>
    </contour>
    <contour>
      <point x="488" y="0" type="line"/>
      <point x="370" y="0" type="line"/>
      <point x="370" y="525" type="line"/>
      <point x="488" y="525" type="line"/>
    </contour>
  </outline>
</glyph>
<glyph name="fl" format="1">
  <advance width="548"/>
  <unicode hex="FB02"/>
  <outline>
    <contour>
      <point x="488" y="0" type="line"/>
      <point x="370" y="0" type="line"/>
      <point x="370" y="670" type="line"/>
      <point x="488" y="729" type="line"/>
    </contour>
    <contour>
      <point x="300" y="609" type="line"/>
      <point x="285" y="616"/>
      <point x="270" y="619"/>
      <point x="247" y="619" type="curve" smooth="yes"/>
      <point x="214" y="619"/>
      <point x="201" y="606"/>
      <point x="201" y="568" type="curve" smooth="yes"/>
      <point x="201" y="525" type="line"/>
      <point x="285" y="525" type="line"/>
      <point x="285" y="413" type="line"/>
      <point x="201" y="413" type="line"/>
      <point x="201" y="0" type="line"/>
      <point x="83" y="0" type="line"/>
      <point x="83" y="413" type="line"/>
      <point x="30" y="413" type="line"/>
      <point x="30" y="525" type="line"/>
      <point x="83" y="525" type="line"/>
      <point x="83" y="588" type="line" smooth="yes"/>
      <point x="83" y="685"/>
      <point x="140" y="726"/>
      <point x="211" y="726" type="curve" smooth="yes"/>
      <point x="252" y="726"/>
      <point x="277" y="721"/>
      <point x="300" y="711" type="curve"/>
    </contour>
  </outline>
</glyph>
<glyph name="macron" format="1">
  <advance width="400"/>
  <outline>
    <contour>
      <point x="330" y="610" type="line"/>
      <point x="70" y="610" type="line"/>
      <point x="70" y="705" type="line"/>
      <point x="330" y="705" type="line"/>
    </contour>
  </outline>
</glyph>
<glyph name="registered" format="1">
  <advance width="646"/>
  <outline>
    <contour>
      <point x="596" y="350" type="curve" smooth="yes"/>
      <point x="596" y="131"/>
      <point x="478" y="-11"/>
      <point x="318" y="-11" type="curve" smooth="yes"/>
      <point x="158" y="-11"/>
      <point x="40" y="131"/>
      <point x="40" y="350" type="curve" smooth="yes"/>
      <point x="40" y="569"/>
      <point x="158" y="711"/>
      <point x="318" y="711" type="curve" smooth="yes"/>
      <point x="478" y="711"/>
      <point x="596" y="569"/>
    </contour>
    <contour>
      <point x="535" y="348" type="curve" smooth="yes"/>
      <point x="535" y="530"/>
      <point x="449" y="653"/>
      <point x="318" y="653" type="curve" smooth="yes"/>
      <point x="185" y="653"/>
      <point x="101" y="534"/>
      <point x="101" y="352" type="curve" smooth="yes"/>
      <point x="101" y="170"/>
      <point x="186" y="47"/>
      <point x="320" y="47" type="curve" smooth="yes"/>
      <point x="451" y="47"/>
      <point x="535" y="166"/>
    </contour>
    <contour>
      <point x="446" y="162" type="line"/>
      <point x="369" y="162" type="line"/>
      <point x="308" y="311" type="line"/>
      <point x="285" y="311" type="line"/>
      <point x="285" y="162" type="line"/>
      <point x="215" y="162" type="line"/>
      <point x="215" y="554" type="line"/>
      <point x="320" y="554" type="line" smooth="yes"/>
      <point x="396" y="554"/>
      <point x="445" y="513"/>
      <point x="445" y="432" type="curve" smooth="yes"/>
      <point x="445" y="377"/>
      <point x="417" y="342"/>
      <point x="378" y="325" type="curve"/>
    </contour>
    <contour>
      <point x="375" y="430" type="curve" smooth="yes"/>
      <point x="375" y="466"/>
      <point x="358" y="485"/>
      <point x="316" y="485" type="curve" smooth="yes"/>
      <point x="285" y="485" type="line"/>
      <point x="285" y="376" type="line"/>
      <point x="320" y="376" type="line" smooth="yes"/>
      <point x="356" y="376"/>
      <point x="375" y="395"/>
    </contour>
  </outline>
</glyph>
